<?xml version="1.0" encoding="UTF-8"?>
<svg version="1.1" xmlns="http://www.w3.org/2000/svg" width="500" height="500">
<path d="M0 0 C1.01578125 0.20625 2.0315625 0.4125 3.078125 0.625 C10.19227545 2.2302442 16.47408355 4.78285554 23 8 C23.65097656 8.28359375 24.30195313 8.5671875 24.97265625 8.859375 C29.85211805 11.0556508 34.13907805 14.05519423 38.5 17.125 C39.13655518 17.56932373 39.77311035 18.01364746 40.42895508 18.47143555 C41.99197376 19.59482191 43.50147732 20.79192132 45 22 C45 22.66 45 23.32 45 24 C45.57492187 24.24492188 46.14984375 24.48984375 46.7421875 24.7421875 C56.23209614 30.02895321 65.62865005 44.88595016 69 55 C69.46125619 60.76570237 68.45413976 65.78874027 66 71 C64.39453125 72.765625 64.39453125 72.765625 63 74 C62.01 73.67 61.02 73.34 60 73 C58.859375 70.2265625 58.859375 70.2265625 57.75 66.625 C55.11636431 58.59853468 51.17592741 51.84808136 45.78515625 45.31640625 C44 43 44 43 44 41 C43.34 41 42.68 41 42 41 C42 40.34 42 39.68 42 39 C41.34 39 40.68 39 40 39 C38.85285276 37.85285276 37.70829435 36.70304035 36.57421875 35.54296875 C20.54641739 19.83333714 -1.18129868 12.72172764 -23.26245117 12.68310547 C-36.37823682 12.88437072 -48.35149229 16.20784806 -60.1796875 21.73046875 C-62.48911395 22.77003052 -64.53015188 23.50483721 -67 24 C-67 24.66 -67 25.32 -67 26 C-68.7578125 27.33203125 -68.7578125 27.33203125 -71.125 28.8125 C-78.01970568 32.96052556 -78.01970568 32.96052556 -83 39 C-83.66 39 -84.32 39 -85 39 C-85.2475 39.53625 -85.495 40.0725 -85.75 40.625 C-87.30652537 43.5823982 -89.03435673 46.29724051 -91 49 C-91.66 49 -92.32 49 -93 49 C-93.10828125 49.55300781 -93.2165625 50.10601562 -93.328125 50.67578125 C-94.12553304 53.43425675 -95.37114713 55.66789515 -96.75 58.1875 C-101.79733418 68.11189685 -105.72482378 79.77674138 -106 91 C-106.05800781 92.52173828 -106.05800781 92.52173828 -106.1171875 94.07421875 C-106.26222386 101.01179135 -105.68719309 107.28190388 -104 114 C-103.60361328 115.62615234 -103.60361328 115.62615234 -103.19921875 117.28515625 C-102.48130436 120.19424061 -101.74781394 123.09848191 -101 126 C-98.34586018 122.80086128 -96.88125065 119.60872141 -95.36328125 115.75 C-95.00245453 114.84060669 -95.00245453 114.84060669 -94.63433838 113.9128418 C-93.85465505 111.94410533 -93.08350436 109.97214957 -92.3125 108 C-91.77458707 106.63648983 -91.23609036 105.27320983 -90.69702148 103.91015625 C-89.62427816 101.19629427 -88.55436155 98.48134368 -87.48632812 95.765625 C-85.86622165 91.6524496 -84.21236878 87.55323461 -82.5546875 83.45507812 C-79.62346281 76.20202806 -76.82482026 68.93769652 -74.30078125 61.53125 C-73.0879324 58.23871138 -71.77315326 55.01565397 -70.41870117 51.77929688 C-69.96637619 50.69741089 -69.51405121 49.6155249 -69.04801941 48.50085449 C-68.702173 47.67557251 -68.3563266 46.85029053 -68 46 C-60.64510266 45.90666965 -53.29033628 45.83591961 -45.93496323 45.79275131 C-42.51827593 45.77201599 -39.10199842 45.74396238 -35.68554688 45.69824219 C-31.74354223 45.64582853 -27.80169431 45.62693864 -23.859375 45.609375 C-22.04925934 45.57840729 -22.04925934 45.57840729 -20.20257568 45.54681396 C-7.91264803 45.54361385 1.95717707 48.4924816 11 57 C15 61.29268293 15 61.29268293 15 65 C15.556875 65.13535156 16.11375 65.27070313 16.6875 65.41015625 C24.43530116 67.59576908 30.21865497 71.67452869 34.4375 78.625 C38.05272124 86.43387787 37.38319594 93.97945953 35.73046875 102.21484375 C35.48941406 102.80394531 35.24835938 103.39304687 35 104 C31.27092171 105.2430261 30.54245247 104.42005692 27 103 C18.85574395 102.1781026 11.61830578 103.09711397 4 106 C2.453125 106.5878125 2.453125 106.5878125 0.875 107.1875 C0.25625 107.455625 -0.3625 107.72375 -1 108 C-1 108.66 -1 109.32 -1 110 C-1.66 110 -2.32 110 -3 110 C-3 110.66 -3 111.32 -3 112 C-3.66 112 -4.32 112 -5 112 C-5.67561748 113.6630584 -6.33933281 115.33094605 -7 117 C-7.26425781 117.58136719 -7.52851563 118.16273438 -7.80078125 118.76171875 C-10.78591618 125.7364653 -11.15642677 132.46529737 -8.5 139.625 C-8.005 140.73875 -7.51 141.8525 -7 143 C-5.89591797 142.27683594 -5.89591797 142.27683594 -4.76953125 141.5390625 C-3.79371094 140.90742188 -2.81789063 140.27578125 -1.8125 139.625 C-0.84957031 138.99851563 0.11335938 138.37203125 1.10546875 137.7265625 C3.69803936 136.18011688 6.16853116 135.02491925 9 134 C9 133.34 9 132.68 9 132 C14.41176471 128 14.41176471 128 17 128 C17 127.34 17 126.68 17 126 C18.29296875 124.87890625 18.29296875 124.87890625 20.1875 123.5625 C30.60003874 115.95824666 39.84458967 107.39481707 48.79492188 98.13134766 C49.44396484 97.46538574 50.09300781 96.79942383 50.76171875 96.11328125 C51.33881592 95.51298096 51.91591309 94.91268066 52.51049805 94.29418945 C54 93 54 93 56 93 C56 92.34 56 91.68 56 91 C56.66 91 57.32 91 58 91 C58.3403125 90.2265625 58.3403125 90.2265625 58.6875 89.4375 C60.48217618 86.10452995 62.49965015 82.85296329 65 80 C65.66 80 66.32 80 67 80 C67.17015625 79.37351562 67.3403125 78.74703125 67.515625 78.1015625 C67.87914062 76.87566406 67.87914062 76.87566406 68.25 75.625 C68.59804688 74.40683594 68.59804688 74.40683594 68.953125 73.1640625 C70.23715336 70.50976507 71.37736943 70.1723066 74 69 C76.8494507 76.29643709 77.60221311 82.82335637 77.8125 90.625 C77.86494873 92.35641235 77.86494873 92.35641235 77.91845703 94.12280273 C78.50107267 120.19943278 70.8644749 140.50283179 55 161 C54.30390625 161.92683594 53.6078125 162.85367188 52.890625 163.80859375 C52.26671875 164.53175781 51.6428125 165.25492188 51 166 C50.34 166 49.68 166 49 166 C49 166.66 49 167.32 49 168 C46.99897593 169.80639559 44.99992565 171.4745127 42.875 173.125 C42.24480957 173.61564941 41.61461914 174.10629883 40.96533203 174.61181641 C17.66341593 192.36758701 -8.70276861 199.12071575 -37.77734375 195.67041016 C-60.17304848 192.12902464 -78.56935417 180.38943072 -94.5625 164.75 C-95.08787354 164.24243164 -95.61324707 163.73486328 -96.15454102 163.21191406 C-98.71916786 160.64176642 -100.63764361 158.71194347 -101 155 C-101.66 155 -102.32 155 -103 155 C-108.42376309 148.5216163 -114 139.5632141 -114 131 C-114.66 131 -115.32 131 -116 131 C-119.87808586 119.81587739 -120.44361104 108.67120896 -120.5 96.9375 C-120.50999023 96.22273499 -120.51998047 95.50796997 -120.53027344 94.77154541 C-120.77033193 73.78503221 -114.52448862 52.41593101 -101 36 C-100.34 36 -99.68 36 -99 36 C-98.73832031 35.4225 -98.47664063 34.845 -98.20703125 34.25 C-95.20036413 28.64533897 -90.21701275 23.57738017 -85 20 C-84.34 20 -83.68 20 -83 20 C-83 19.34 -83 18.68 -83 18 C-80.96812546 16.44943907 -78.96319095 15.05650453 -76.8125 13.6875 C-76.18335693 13.28450684 -75.55421387 12.88151367 -74.90600586 12.46630859 C-68.9080129 8.742589 -62.65329684 6.32177117 -56 4 C-54.7435904 3.4519661 -53.49213424 2.89216264 -52.25 2.3125 C-36.39890639 -4.08890319 -16.46904213 -3.41327298 0 0 Z M-58 60 C-58.64143944 61.26887354 -59.28126243 62.5385643 -59.92041016 63.80859375 C-60.45512436 64.86904907 -60.45512436 64.86904907 -61.00064087 65.95092773 C-62.2835764 68.58144116 -63.34759204 71.26024544 -64.375 74 C-64.79523438 75.11246094 -65.21546875 76.22492188 -65.6484375 77.37109375 C-66.34191818 79.23306932 -67.03533386 81.09506942 -67.72753906 82.95751953 C-70.98367441 91.71766985 -74.35739548 100.39117012 -78 109 C-82.97933102 120.86841765 -87.92779903 132.7833971 -92 145 C-90.4076589 147.49036712 -90.4076589 147.49036712 -88.1875 150 C-85.97814348 152.62776563 -83.90617361 155.14073958 -82 158 C-81.34 158 -80.68 158 -80 158 C-80 158.66 -80 159.32 -80 160 C-78.09587525 161.6354808 -76.20199329 163.13794613 -74.1875 164.625 C-73.64029297 165.04523438 -73.09308594 165.46546875 -72.52929688 165.8984375 C-69.14347315 168.46755795 -69.14347315 168.46755795 -65 169 C-65 169.66 -65 170.32 -65 171 C-56.81298238 175.08030394 -48.97144226 178.15721727 -40 180 C-39.01 178.329375 -39.01 178.329375 -38 176.625 C-37.443125 175.68527344 -37.443125 175.68527344 -36.875 174.7265625 C-35.84931652 173.02527333 -35.84931652 173.02527333 -36 171 C-35.34 171 -34.68 171 -34 171 C-31.67980703 167.80973467 -29.65356922 164.58273331 -28 161 C-27.34 161 -26.68 161 -26 161 C-24.65080468 159.34614767 -23.31866272 157.678298 -22 156 C-21.01 155.34 -20.02 154.68 -19 154 C-19.63877082 150.56660685 -20.4688496 147.27327153 -21.5 143.9375 C-25.10899443 132.22631307 -24.7483938 122.51447571 -20 111 C-18.4867089 108.46641631 -16.84910077 106.31137596 -15 104 C-15 103.34 -15 102.68 -15 102 C-14.34 102 -13.68 102 -13 102 C-13 101.34 -13 100.68 -13 100 C-11.89785156 99.5978125 -11.89785156 99.5978125 -10.7734375 99.1875 C-8.07765483 98.03324939 -5.99472141 96.71099019 -3.625 95 C4.11353704 89.78600209 11.88965047 89.5205914 21 89 C21.33 87.35 21.66 85.7 22 84 C21.34 84 20.68 84 20 84 C20 83.34 20 82.68 20 82 C13.54695966 77.53863878 7.87776209 75.568831 0 77 C-1.69774938 78.29352333 -3.36739286 79.62517293 -5 81 C-9.74888864 81.74120585 -13.85170132 81.55978168 -18 79 C-18.495 78.01 -18.495 78.01 -19 77 C-19.66 77 -20.32 77 -21 77 C-21.2475 76.401875 -21.495 75.80375 -21.75 75.1875 C-23.17002708 72.70245261 -24.72705959 71.68637514 -27 70 C-27.495 68.515 -27.495 68.515 -28 67 C-26.9330188 67.01571045 -26.9330188 67.01571045 -25.84448242 67.03173828 C-22.62552414 67.07328001 -19.40662224 67.09932039 -16.1875 67.125 C-14.50817383 67.15013672 -14.50817383 67.15013672 -12.79492188 67.17578125 C-11.18520508 67.18544922 -11.18520508 67.18544922 -9.54296875 67.1953125 C-8.55321045 67.20578613 -7.56345215 67.21625977 -6.54370117 67.22705078 C-3.7556048 67.18267404 -3.7556048 67.18267404 -1 65 C-8.23925535 60.65017066 -13.86890501 59.29001086 -22.2578125 59.51171875 C-23.28687714 59.51879349 -24.31594177 59.52586823 -25.37619019 59.53315735 C-28.62656875 59.56089359 -31.87515213 59.62359308 -35.125 59.6875 C-37.34372492 59.71260969 -39.56247715 59.73541815 -41.78125 59.75585938 C-47.18810079 59.8106514 -52.5939221 59.89406536 -58 60 Z M62 106 C61.62875 106.928125 61.62875 106.928125 61.25 107.875 C59.7439805 110.43523315 58.62404106 110.71650165 56 112 C54.71812563 112.95880034 53.4668707 113.95993957 52.25 115 C51.63640625 115.515625 51.0228125 116.03125 50.390625 116.5625 C48.76823624 117.90623252 48.76823624 117.90623252 49 120 C47.68 120.33 46.36 120.66 45 121 C45 121.66 45 122.32 45 123 C44.34 123 43.68 123 43 123 C43 123.66 43 124.32 43 125 C42.401875 125.28875 41.80375 125.5775 41.1875 125.875 C38.80672208 127.04742026 38.80672208 127.04742026 36 129 C36 129.66 36 130.32 36 131 C35.14305542 131.39856201 35.14305542 131.39856201 34.26879883 131.80517578 C31.88379363 133.06119811 29.85108982 134.49527431 27.69921875 136.1171875 C26.88646484 136.72433594 26.07371094 137.33148438 25.23632812 137.95703125 C23.5483448 139.22722253 21.86083807 140.49804745 20.17382812 141.76953125 C15.587037 145.19423875 11.04463237 148.29046737 6 151 C6 151.66 6 152.32 6 153 C5.45214844 153.25136719 4.90429688 153.50273437 4.33984375 153.76171875 C-2.49201661 157.37724419 -8.70994089 162.39876094 -14 168 C-14.845625 168.639375 -15.69125 169.27875 -16.5625 169.9375 C-19.90759471 172.76796476 -22.04910846 176.09821692 -24 180 C-23.401875 179.690625 -22.80375 179.38125 -22.1875 179.0625 C-20 178 -20 178 -17 177 C-17 176.34 -17 175.68 -17 175 C-16.16662109 174.60554688 -16.16662109 174.60554688 -15.31640625 174.203125 C-12.74118536 172.86557351 -10.3662005 171.33813406 -7.9375 169.75 C-3.43597258 166.86166818 1.13675527 164.24998608 5.8515625 161.73046875 C10.54181934 159.15257324 15.13034696 156.40696529 19.73193359 153.67480469 C23.69253179 151.3311196 27.67390415 149.0768544 31.75 146.9375 C37.24943855 143.99770796 42.27354723 140.46252561 47.34765625 136.85546875 C50 135 50 135 52 134 C52 133.34 52 132.68 52 132 C52.66 132 53.32 132 54 132 C54 131.34 54 130.68 54 130 C54.66 130 55.32 130 56 130 C56.98111975 127.8967433 57.95983134 125.79236311 58.9375 123.6875 C59.48277344 122.51574219 60.02804687 121.34398437 60.58984375 120.13671875 C62.2331924 116.48129226 63.12761849 113.78472801 63.0625 109.8125 C63.041875 108.554375 63.02125 107.29625 63 106 C62.67 106 62.34 106 62 106 Z M25 166 C22.80961577 167.37168238 22.80961577 167.37168238 21 169 C21.33 169.66 21.66 170.32 22 171 C23.98 169.68 25.96 168.36 28 167 C27.01 166.67 26.02 166.34 25 166 Z " fill="#0F253D" transform="translate(263,101)"/>
<path d="M0 0 C3.31878578 0 5.60526825 0.11159734 8.171875 2.34765625 C11.33643579 6.00355674 13.90770261 10.05753349 16.45458984 14.15771484 C17.93610008 16.48968736 19.59781294 18.64805896 21.3125 20.8125 C23.625 24 23.625 24 23.625 26 C24.285 26 24.945 26 25.625 26 C27.09765625 28.1875 27.09765625 28.1875 28.6875 31 C29.64226693 32.68076329 30.61536317 34.35161333 31.625 36 C31.955 36 32.285 36 32.625 36 C32.66258423 34.46291382 32.66258423 34.46291382 32.70092773 32.89477539 C32.79484484 29.10590324 32.89510317 25.31722119 32.99731445 21.52856445 C33.04072297 19.88635697 33.08239358 18.24410261 33.12231445 16.60180664 C33.1798744 14.24611255 33.24360892 11.89065572 33.30859375 9.53515625 C33.33366249 8.42733543 33.33366249 8.42733543 33.35923767 7.2971344 C33.51112829 2.11387171 33.51112829 2.11387171 34.625 1 C36.64464199 0.92755947 38.66667124 0.91622812 40.6875 0.9375 C42.34458984 0.95103516 42.34458984 0.95103516 44.03515625 0.96484375 C44.88980469 0.97644531 45.74445313 0.98804688 46.625 1 C46.77910449 8.34540195 46.92728299 15.69089847 47.0679636 23.03657055 C47.13347677 26.44770526 47.20100612 29.85877487 47.27319336 33.26977539 C47.35615394 37.19406327 47.43025492 41.11849467 47.50390625 45.04296875 C47.53094131 46.26396774 47.55797638 47.48496674 47.58583069 48.7429657 C47.60592697 49.8837709 47.62602325 51.02457611 47.64672852 52.19995117 C47.66671402 53.20144699 47.68669952 54.20294281 47.70729065 55.23478699 C47.62681804 57.93890842 47.23852193 60.37005438 46.625 63 C41.97815525 63.69190152 37.53700412 64.29692927 33.5 61.55859375 C31.31301516 59.15746665 29.47596224 56.67131422 27.625 54 C26.98280518 53.09145264 26.98280518 53.09145264 26.32763672 52.16455078 C23.46352707 48.11065688 20.67333799 44.01130273 17.90722656 39.89013672 C15.59711334 36.48478703 13.18194487 33.15362405 10.76953125 29.8203125 C9.625 28 9.625 28 9.625 26 C8.965 26 8.305 26 7.625 26 C7.295 37.88 6.965 49.76 6.625 62 C4.10024538 63.26237731 2.31299534 63.09856404 -0.5 63.0625 C-1.41007812 63.05347656 -2.32015625 63.04445313 -3.2578125 63.03515625 C-3.95648438 63.02355469 -4.65515625 63.01195312 -5.375 63 C-6.70138978 60.34722045 -6.50212356 58.34333079 -6.50439453 55.37280273 C-6.50754669 54.19495712 -6.51069885 53.01711151 -6.51394653 51.80357361 C-6.5119223 50.52648026 -6.50989807 49.2493869 -6.5078125 47.93359375 C-6.50876923 46.62922867 -6.50972595 45.32486359 -6.51071167 43.98097229 C-6.51218677 41.21948056 -6.51003978 38.45802117 -6.50537109 35.6965332 C-6.49966831 32.14980979 -6.50295745 28.60316196 -6.50894356 25.05644131 C-6.51341648 21.68215265 -6.51028929 18.30788456 -6.5078125 14.93359375 C-6.50983673 13.65447617 -6.51186096 12.37535858 -6.51394653 11.05747986 C-6.51079437 9.88278641 -6.50764221 8.70809296 -6.50439453 7.49780273 C-6.50320114 5.93798927 -6.50320114 5.93798927 -6.50198364 4.34666443 C-6.27321757 0.11905531 -3.82248761 0.47166942 0 0 Z " fill="#178F53" transform="translate(357.375,329)"/>
<path d="M0 0 C7.16995069 3.46074353 11.16346566 7.47457951 14.96875 14.4609375 C15.38511719 15.21632813 15.80148437 15.97171875 16.23046875 16.75 C19.77368051 23.78373636 19.37349346 34.05243753 17.6328125 41.67578125 C14.09855679 50.26976201 8.02573179 56.16336122 -0.37109375 59.9375 C-9.84439448 63.56288963 -19.69621298 62.16704225 -28.78125 58.2109375 C-35.80949359 54.48928883 -40.20735074 48.23061311 -42.71875 40.8359375 C-45.07165914 30.86092834 -44.35395483 20.76013717 -39.5703125 11.6484375 C-35.61795024 5.617087 -30.11417051 2.85599719 -23.71875 -0.1640625 C-17.43413272 -3.30637114 -6.51835979 -2.04041094 0 0 Z M-26.71875 16.8359375 C-26.71875 17.8259375 -26.71875 18.8159375 -26.71875 19.8359375 C-27.37875 19.8359375 -28.03875 19.8359375 -28.71875 19.8359375 C-31.48315649 26.91972913 -31.25565395 32.7006111 -28.69921875 39.7578125 C-27.2470494 42.83571726 -25.3460468 44.70907819 -22.71875 46.8359375 C-21.996875 47.4340625 -21.275 48.0321875 -20.53125 48.6484375 C-16.27913167 50.44377635 -12.26691138 50.39224154 -7.71875 49.8359375 C-4.88015195 48.7167581 -4.88015195 48.7167581 -2.71875 46.8359375 C-1.831875 46.1965625 -0.945 45.5571875 -0.03125 44.8984375 C4.68083812 40.69576431 4.90917361 36.00763032 5.30078125 29.94140625 C5.26662341 24.51030946 4.31719882 20.06466669 0.58984375 15.984375 C-4.76445651 11.2672253 -8.42962266 10.37957424 -15.5859375 10.4140625 C-20.2913743 11.04771234 -23.6946822 13.18037319 -26.71875 16.8359375 Z " fill="#0E8D4E" transform="translate(325.71875,331.1640625)"/>
<path d="M0 0 C0.54527344 0.28875 1.09054688 0.5775 1.65234375 0.875 C1.65234375 -0.115 1.65234375 -1.105 1.65234375 -2.125 C3.46476427 -2.15187279 5.27729608 -2.17133715 7.08984375 -2.1875 C8.09917969 -2.19910156 9.10851562 -2.21070313 10.1484375 -2.22265625 C12.65234375 -2.125 12.65234375 -2.125 13.65234375 -1.125 C13.75160148 0.83324698 13.78033789 2.79509897 13.78173828 4.75585938 C13.78489044 6.01386353 13.7880426 7.27186768 13.79129028 8.56799316 C13.7895005 9.95157913 13.78744955 11.33516478 13.78515625 12.71875 C13.78582934 14.12740089 13.7867994 15.53605166 13.78805542 16.94470215 C13.78953217 19.90048323 13.78737858 22.85623414 13.78271484 25.81201172 C13.77701756 29.60874584 13.78029668 33.40540928 13.78628731 37.20214081 C13.78989354 40.11196428 13.78875405 43.02177088 13.78615952 45.93159485 C13.78549042 47.331894 13.78631807 48.73219467 13.78863907 50.13249207 C13.79116658 52.08637464 13.78663408 54.04026255 13.78173828 55.99414062 C13.78094269 57.10809204 13.78014709 58.22204346 13.77932739 59.36975098 C13.65234375 61.875 13.65234375 61.875 12.65234375 62.875 C8.98318605 63.01810287 5.32518934 62.91721662 1.65234375 62.875 C1.65234375 55.945 1.65234375 49.015 1.65234375 41.875 C-0.32765625 42.865 -2.30765625 43.855 -4.34765625 44.875 C-12.65023328 46.79004696 -19.6642292 45.7307482 -26.91015625 41.3125 C-27.38453125 40.838125 -27.85890625 40.36375 -28.34765625 39.875 C-28.34765625 39.215 -28.34765625 38.555 -28.34765625 37.875 C-29.33765625 37.545 -30.32765625 37.215 -31.34765625 36.875 C-35.18121657 30.37530101 -35.17981032 22.14539869 -34.34765625 14.875 C-33.31230976 11.37006081 -31.99559961 8.13410227 -30.34765625 4.875 C-29.68765625 4.875 -29.02765625 4.875 -28.34765625 4.875 C-28.01765625 3.885 -27.68765625 2.895 -27.34765625 1.875 C-25.60546875 0.7421875 -25.60546875 0.7421875 -23.47265625 -0.25 C-22.77398437 -0.58257812 -22.0753125 -0.91515625 -21.35546875 -1.2578125 C-13.66504949 -4.57935545 -7.37304861 -3.62980855 0 0 Z M-18.34765625 9.875 C-21.79185634 14.49915753 -22.99731796 19.13632153 -22.34765625 24.875 C-21.45017355 27.70878132 -21.45017355 27.70878132 -20.34765625 29.875 C-19.68765625 29.875 -19.02765625 29.875 -18.34765625 29.875 C-18.34765625 30.535 -18.34765625 31.195 -18.34765625 31.875 C-14.92270938 33.96338224 -12.83897033 34.88361955 -8.78515625 34.8125 C-4.34509367 33.60157384 -1.78878032 31.79649876 0.96484375 28.125 C2.43316303 23.31959146 2.15412074 19.24828441 0.46484375 14.625 C-1.59309864 11.50260465 -3.098284 9.75241508 -6.34765625 7.875 C-10.71925348 7.17833112 -14.56990972 7.46814706 -18.34765625 9.875 Z " fill="#192E45" transform="translate(229.34765625,347.125)"/>
<path d="M0 0 C2.91261466 1.59908256 4.96125214 3.26100399 6.5625 6.25 C4.9125 8.89 3.2625 11.53 1.5625 14.25 C-1.50264421 13.78558421 -3.71305997 13.10940818 -6.5 11.6875 C-11.54040405 9.38011503 -17.01962208 10.00979852 -22.4375 10.25 C-23.64061661 14.68798874 -23.64061661 14.68798874 -22.41015625 18.82421875 C-19.58777198 20.86415985 -16.48180804 21.75074805 -13.1875 22.75 C2.33359219 27.57118094 2.33359219 27.57118094 6.5625 33.25 C8.98814139 39.4747053 8.87440781 44.81518297 6.5859375 51.0546875 C4.56629569 55.38689627 2.50727436 57.48587448 -1.97265625 59.24609375 C-11.48496451 62.06594798 -20.92649006 62.24108841 -30 57.9375 C-36.45761628 54.26696566 -36.45761628 54.26696566 -38.4375 51.25 C-38.1875 48.5 -38.1875 48.5 -37.4375 46.25 C-35.9525 45.755 -35.9525 45.755 -34.4375 45.25 C-34.1075 44.26 -33.7775 43.27 -33.4375 42.25 C-28.89889912 42.78395304 -26.14662117 44.6697418 -22.4375 47.25 C-18.12034941 48.6890502 -13.94923786 48.81858235 -9.4375 48.25 C-6.80233958 46.45808542 -6.80233958 46.45808542 -5.4375 44.25 C-5.65807985 41.29307894 -5.65807985 41.29307894 -7.4375 38.25 C-10.70995587 36.5176607 -14.19139814 35.60701203 -17.75 34.625 C-31.04018879 30.80463387 -31.04018879 30.80463387 -35.25 24.5625 C-37.26590912 18.93917456 -37.01907333 14.26840155 -35.375 8.5625 C-28.40059504 -3.36148267 -12.19195806 -5.15580316 0 0 Z " fill="#12273F" transform="translate(133.4375,331.75)"/>
<path d="M0 0 C1.01610352 -0.02416992 1.01610352 -0.02416992 2.05273438 -0.04882812 C7.19472829 -0.05375813 10.58749253 0.97771349 15.0625 3.3125 C19.733123 8.35185639 20.21276285 11.67524262 20.1953125 18.34765625 C20.19626923 19.1415123 20.19722595 19.93536835 20.19821167 20.75328064 C20.19889251 22.43195678 20.1970449 24.11063555 20.19287109 25.78930664 C20.18751441 28.36806097 20.19282292 30.94664168 20.19921875 33.52539062 C20.19855809 35.15364622 20.19727718 36.78190171 20.1953125 38.41015625 C20.19733673 39.18617691 20.19936096 39.96219757 20.20144653 40.76173401 C20.17745583 46.19754417 20.17745583 46.19754417 19.0625 47.3125 C17.43997508 47.41136353 15.81302727 47.44221167 14.1875 47.4375 C13.30320313 47.44007813 12.41890625 47.44265625 11.5078125 47.4453125 C9.0625 47.3125 9.0625 47.3125 6.0625 46.3125 C5.216875 46.621875 4.37125 46.93125 3.5 47.25 C-1.77826855 48.88146482 -7.06861695 49.57035766 -12.25390625 47.296875 C-20.07139997 42.51711825 -20.07139997 42.51711825 -21.625 38.5625 C-22.35102635 33.33511029 -22.26000046 29.1026572 -19.9375 24.3125 C-19.2775 24.3125 -18.6175 24.3125 -17.9375 24.3125 C-17.628125 23.384375 -17.628125 23.384375 -17.3125 22.4375 C-15.31835158 19.35563426 -13.47617782 19.22876479 -9.9375 18.3125 C-6.81642345 17.95342571 -3.70085481 17.80762841 -0.5625 17.6875 C0.26894531 17.64882813 1.10039062 17.61015625 1.95703125 17.5703125 C3.99185156 17.47675754 6.02714416 17.39357287 8.0625 17.3125 C7.7325 15.6625 7.4025 14.0125 7.0625 12.3125 C4.1344073 11.4768571 1.48073857 11.15044514 -1.5625 11.125 C-2.33851563 11.11082031 -3.11453125 11.09664063 -3.9140625 11.08203125 C-6.16586993 11.12584164 -6.16586993 11.12584164 -7.9375 13.3125 C-9.92571313 13.71014263 -11.92694339 14.05025349 -13.9375 14.3125 C-15.83615603 11.34069057 -17.29205571 8.79789917 -17.9375 5.3125 C-12.53680913 0.74268465 -6.89813316 -0.03263072 0 0 Z M-8.9375 29.3125 C-9.60430368 32.26970628 -9.60430368 32.26970628 -8.9375 35.3125 C-6.93905751 37.44603917 -6.93905751 37.44603917 -3.9375 38.3125 C-0.20656622 38.09002165 -0.20656622 38.09002165 3.0625 37.3125 C3.3925 36.3225 3.7225 35.3325 4.0625 34.3125 C6.125 33.125 6.125 33.125 8.0625 32.3125 C8.0625 30.6625 8.0625 29.0125 8.0625 27.3125 C5.79192623 27.25851013 3.52098712 27.21971258 1.25 27.1875 C-0.01457031 27.16429687 -1.27914062 27.14109375 -2.58203125 27.1171875 C-6.0713024 27.03668082 -6.0713024 27.03668082 -8.9375 29.3125 Z " fill="#0E233D" transform="translate(168.9375,344.6875)"/>
<path d="M0 0 C2.475 0.495 2.475 0.495 5 1 C6.50461426 10.02768556 5.63647596 18.92287367 5 28 C4.34 28 3.68 28 3 28 C3 28.99 3 29.98 3 31 C2.34 31 1.68 31 1 31 C1.144375 31.70125 1.28875 32.4025 1.4375 33.125 C0.83854452 37.06099318 -0.9474761 38.25051553 -4 40.64453125 C-11.46422185 45.70329098 -20.18279534 47.04778048 -29.0078125 45.69140625 C-31.05845732 45.23704769 -33.00902552 44.66878293 -35 44 C-35.72960937 43.75507813 -36.45921875 43.51015625 -37.2109375 43.2578125 C-42.48761173 41.1052342 -42.48761173 41.1052342 -43.9453125 37.9609375 C-44.5 35.75 -44.5 35.75 -45 32 C-41.57877814 29.92282958 -41.57877814 29.92282958 -39.125 30.25 C-38.42375 30.4975 -37.7225 30.745 -37 31 C-35.989375 31.28875 -34.97875 31.5775 -33.9375 31.875 C-31 33 -31 33 -29.796875 34.58984375 C-26.90666651 36.85802911 -23.77179975 36.05248681 -20.3125 35.6875 C-19.61060547 35.62626953 -18.90871094 35.56503906 -18.18554688 35.50195312 C-16.4557033 35.34897376 -14.72761503 35.17637398 -13 35 C-12.67 33.35 -12.34 31.7 -12 30 C-11.01 30.33 -10.02 30.66 -9 31 C-8.690625 30.38125 -8.38125 29.7625 -8.0625 29.125 C-7.375 27.75 -6.6875 26.375 -6 25 C-5.34 25 -4.68 25 -4 25 C-4.33 17.41 -4.66 9.82 -5 2 C-3.35 2 -1.7 2 0 2 C0 1.34 0 0.68 0 0 Z " fill="#0C8D4E" transform="translate(336,347)"/>
<path d="M0 0 C1.49498913 2.98997825 1.11577446 5.70042775 1 9 C0.67 9.99 0.34 10.98 0 12 C-4.455 12.495 -4.455 12.495 -9 13 C-9 13.66 -9 14.32 -9 15 C-9.639375 15.61875 -10.27875 16.2375 -10.9375 16.875 C-14.31585202 20.35572632 -14.14109585 23.93228858 -14.31640625 28.640625 C-14.37924805 30.24550781 -14.37924805 30.24550781 -14.44335938 31.8828125 C-14.50233398 33.54957031 -14.50233398 33.54957031 -14.5625 35.25 C-14.60568359 36.37664062 -14.64886719 37.50328125 -14.69335938 38.6640625 C-14.79931933 41.44256799 -14.9001526 44.22126814 -15 47 C-18.96 47 -22.92 47 -27 47 C-27 31.82 -27 16.64 -27 1 C-23.37 1 -19.74 1 -16 1 C-15.67 2.65 -15.34 4.3 -15 6 C-14.34 6 -13.68 6 -13 6 C-13 5.34 -13 4.68 -13 4 C-4.738041 -0.59225513 -4.738041 -0.59225513 0 0 Z " fill="#0A2038" transform="translate(278,344)"/>
<path d="M0 0 C0 0.66 0 1.32 0 2 C0.99 1.67 1.98 1.34 3 1 C3.33 1.66 3.66 2.32 4 3 C3.34 3.66 2.68 4.32 2 5 C1.34 5 0.68 5 0 5 C3.56086658 6.18695553 6.97331024 6.35095418 10.6875 6.5625 C11.38939453 6.60568359 12.09128906 6.64886719 12.81445312 6.69335938 C14.54275206 6.7991736 16.2713511 6.90006581 18 7 C18 7.33 18 7.66 18 8 C17.01257813 8.06058594 16.02515625 8.12117188 15.0078125 8.18359375 C13.72648437 8.26738281 12.44515625 8.35117187 11.125 8.4375 C9.84882813 8.51871094 8.57265625 8.59992188 7.2578125 8.68359375 C4.11699848 8.79206027 4.11699848 8.79206027 2 10 C2 11.98 2 13.96 2 16 C4.8221083 17.91903365 6.12901932 17.99110212 9.625 17.75 C13.05272884 17.30518815 13.05272884 17.30518815 15 15 C15.33 15.99 15.66 16.98 16 18 C15.360625 18.433125 14.72125 18.86625 14.0625 19.3125 C11.73253997 20.91239177 11.73253997 20.91239177 11 24 C10.34 24 9.68 24 9 24 C9.33 24.66 9.66 25.32 10 26 C11.65 26 13.3 26 15 26 C11.00977788 29.50542878 7.98605883 29.55679829 2.828125 29.42578125 C-2.8972844 28.56380663 -7.15538659 25.18484469 -11 21 C-12.75701709 16.52759287 -12.52591558 11.54487702 -11 7.0625 C-10.505 6.0415625 -10.505 6.0415625 -10 5 C-9.34 5 -8.68 5 -8 5 C-7.731875 4.360625 -7.46375 3.72125 -7.1875 3.0625 C-5.37365074 -0.08786977 -3.47812867 0 0 0 Z " fill="#132843" transform="translate(159,364)"/>
<path d="M0 0 C7.20656069 1.96979325 12.59964356 4.15717584 16.6640625 10.6640625 C22.1300394 20.48209684 24.11067387 30.9334642 21.2109375 42.015625 C19.62433345 45.67329236 17.9199412 48.27249045 15 51 C15 49.68 15 48.36 15 47 C15.66 47 16.32 47 17 47 C17 46.01 17 45.02 17 44 C17.66 44 18.32 44 19 44 C19 35.09 19 26.18 19 17 C17.35 16.67 15.7 16.34 14 16 C14 16.66 14 17.32 14 18 C12.35 18 10.7 18 9 18 C9.33 18.99 9.66 19.98 10 21 C10.08106686 22.55421729 10.10756898 24.11167027 10.09765625 25.66796875 C10.09443359 26.56064453 10.09121094 27.45332031 10.08789062 28.37304688 C10.07951172 29.30181641 10.07113281 30.23058594 10.0625 31.1875 C10.05798828 32.12787109 10.05347656 33.06824219 10.04882812 34.03710938 C10.03704626 36.35813712 10.02059558 38.67903644 10 41 C9.34 41 8.68 41 8 41 C7.5359375 41.928125 7.5359375 41.928125 7.0625 42.875 C6.375 44.25 5.6875 45.625 5 47 C4.01 46.67 3.02 46.34 2 46 C2.45375 45.5875 2.9075 45.175 3.375 44.75 C7.98690615 39.78333184 8.06524645 33.50017712 8 27 C6.99639525 21.33799651 5.20422634 17.92394459 1 14 C0 11.5 0 11.5 0 9 C1.9375 6.6875 1.9375 6.6875 4 5 C2.68 4.67 1.36 4.34 0 4 C0 2.68 0 1.36 0 0 Z " fill="#0B894A" transform="translate(322,331)"/>
<path d="M0 0 C0.99 0.33 1.98 0.66 3 1 C2.67 1.99 2.34 2.98 2 4 C1.34 4 0.68 4 0 4 C-1.08281557 12.20591559 -1.84907858 20.3713208 2 28 C3.93149053 29.24453221 3.93149053 29.24453221 6 30 C6.70125 30.53625 7.4025 31.0725 8.125 31.625 C12.3853171 33.66254296 16.35620252 33.57769729 21 33 C24.5047765 31.67014431 24.5047765 31.67014431 27 30 C26.67 31.65 26.34 33.3 26 35 C22.91514975 36.02828342 20.23220759 36.38250002 17 36.6875 C15.948125 36.79449219 14.89625 36.90148437 13.8125 37.01171875 C11 37 11 37 8 35 C8 34.34 8 33.68 8 33 C6.741875 32.67 5.48375 32.34 4.1875 32 C3.47980469 31.814375 2.77210938 31.62875 2.04296875 31.4375 C-0.14070009 30.8952993 -0.14070009 30.8952993 -3 31 C-5.33391203 33.78114056 -5.33391203 33.78114056 -4.625 36.6875 C-4.41875 37.450625 -4.2125 38.21375 -4 39 C-10.87443326 32.31136223 -14.53194725 26.61021867 -15.22265625 16.85546875 C-15.26386902 12.08067508 -15.05428614 7.66776685 -14 3 C-13.67 3 -13.34 3 -13 3 C-12.67 8.61 -12.34 14.22 -12 20 C-10.35 19.67 -8.7 19.34 -7 19 C-6.67 18.34 -6.34 17.68 -6 17 C-5.34 17 -4.68 17 -4 17 C-3.9690625 15.1128125 -3.9690625 15.1128125 -3.9375 13.1875 C-3.92589844 12.47980469 -3.91429687 11.77210938 -3.90234375 11.04296875 C-3.91736783 8.79694539 -3.91736783 8.79694539 -5 6 C-4.01 5.67 -3.02 5.34 -2 5 C-0.78130071 2.49552484 -0.78130071 2.49552484 0 0 Z " fill="#1A9057" transform="translate(297,347)"/>
<path d="M0 0 C4.6889493 0.55619669 8.19924267 1.88182673 12.375 4.0625 C13.43460937 4.61035156 14.49421875 5.15820312 15.5859375 5.72265625 C16.38257813 6.14417969 17.17921875 6.56570312 18 7 C16.02 7.99 16.02 7.99 14 9 C14 9.99 14 10.98 14 12 C14.66 12 15.32 12 16 12 C16 14.31 16 16.62 16 19 C17.65 19.33 19.3 19.66 21 20 C21 20.99 21 21.98 21 23 C22.24546405 26.73639216 23.63404953 27.18756513 27 29 C26.34 29.66 25.68 30.32 25 31 C24.33097656 30.45472656 23.66195312 29.90945312 22.97265625 29.34765625 C16.96597314 24.63099904 10.88638221 20.62820771 4.125 17.0625 C3.412229 16.68552979 2.69945801 16.30855957 1.96508789 15.92016602 C-1.94323407 13.9071213 -5.77249894 12.26559985 -10 11 C-10 10.67 -10 10.34 -10 10 C-7.03 10 -4.06 10 -1 10 C-1.33 9.01 -1.66 8.02 -2 7 C-1.34 6.34 -0.68 5.68 0 5 C-0.33 4.34 -0.66 3.68 -1 3 C-0.34 3 0.32 3 1 3 C0.67 2.01 0.34 1.02 0 0 Z " fill="#10263C" transform="translate(276,106)"/>
<path d="M0 0 C1.32 0 2.64 0 4 0 C4 0.66 4 1.32 4 2 C5.11375 2.20625 6.2275 2.4125 7.375 2.625 C11 4 11 4 12.375 6.8125 C12.58125 7.864375 12.7875 8.91625 13 10 C13.20625 10.94875 13.4125 11.8975 13.625 12.875 C13.74875 13.57625 13.8725 14.2775 14 15 C14.66 15 15.32 15 16 15 C16.33 17.64 16.66 20.28 17 23 C15.02 23.33 13.04 23.66 11 24 C11 24.66 11 25.32 11 26 C9.35 25.67 7.7 25.34 6 25 C6 24.34 6 23.68 6 23 C5.01 22.67 4.02 22.34 3 22 C-0.92545093 15.34450295 -0.31018249 7.43289163 0 0 Z " fill="#112840" transform="translate(195,362)"/>
<path d="M0 0 C1.65 0.33 3.3 0.66 5 1 C6.50461426 10.02768556 5.63647596 18.92287367 5 28 C0.25 30 0.25 30 -2 30 C-2.33 29.01 -2.66 28.02 -3 27 C-3.33 26.34 -3.66 25.68 -4 25 C-4.15266612 23.26131256 -4.24932596 21.51752499 -4.31640625 19.7734375 C-4.35830078 18.7421875 -4.40019531 17.7109375 -4.44335938 16.6484375 C-4.48267578 15.56820313 -4.52199219 14.48796875 -4.5625 13.375 C-4.60568359 12.28703125 -4.64886719 11.1990625 -4.69335938 10.078125 C-4.7996453 7.3855483 -4.90168057 4.69287747 -5 2 C-3.35 2 -1.7 2 0 2 C0 1.34 0 0.68 0 0 Z " fill="#0A8C4A" transform="translate(336,347)"/>
<path d="M0 0 C0.66 0.66 1.32 1.32 2 2 C1.34 3.32 0.68 4.64 0 6 C-0.66 6 -1.32 6 -2 6 C-2.33 7.65 -2.66 9.3 -3 11 C0.3 10.67 3.6 10.34 7 10 C4.05360001 11.96426666 1.09912726 13.5345824 -2.0625 15.125 C-3.12597656 15.66382812 -4.18945312 16.20265625 -5.28515625 16.7578125 C-8 18 -8 18 -10 18 C-10 17.34 -10 16.68 -10 16 C-10.99 15.67 -11.98 15.34 -13 15 C-13.66 14.67 -14.32 14.34 -15 14 C-15 13.34 -15 12.68 -15 12 C-15.99 11.67 -16.98 11.34 -18 11 C-17.34 11 -16.68 11 -16 11 C-16.99 9.68 -17.98 8.36 -19 7 C-5.96965718 -2.35511792 -5.96965718 -2.35511792 0 0 Z " fill="#193047" transform="translate(207,107)"/>
<path d="M0 0 C0 0.66 0 1.32 0 2 C0.99 1.67 1.98 1.34 3 1 C3.33 1.66 3.66 2.32 4 3 C3.34 3.66 2.68 4.32 2 5 C1.34 5 0.68 5 0 5 C3.56086658 6.18695553 6.97331024 6.35095418 10.6875 6.5625 C11.38939453 6.60568359 12.09128906 6.64886719 12.81445312 6.69335938 C14.54275206 6.7991736 16.2713511 6.90006581 18 7 C18 7.33 18 7.66 18 8 C17.01257813 8.06058594 16.02515625 8.12117188 15.0078125 8.18359375 C13.72648437 8.26738281 12.44515625 8.35117187 11.125 8.4375 C9.84882813 8.51871094 8.57265625 8.59992188 7.2578125 8.68359375 C4.11699848 8.79206027 4.11699848 8.79206027 2 10 C1.34444881 12.52733235 1.34444881 12.52733235 1 15 C0.34 15 -0.32 15 -1 15 C-1.33 16.32 -1.66 17.64 -2 19 C-3.32 19.33 -4.64 19.66 -6 20 C-9 14.375 -9 14.375 -9 11 C-9.66 12.98 -10.32 14.96 -11 17 C-11.33 17 -11.66 17 -12 17 C-12.17835515 12.45194365 -11.99785435 9.1205746 -10 5 C-9.34 5 -8.68 5 -8 5 C-7.731875 4.360625 -7.46375 3.72125 -7.1875 3.0625 C-5.37365074 -0.08786977 -3.47812867 0 0 0 Z " fill="#132B43" transform="translate(159,364)"/>
<path d="M0 0 C6.4652248 0.96260014 10.29385826 2.41452857 15 7 C14.43457996 8.32031595 13.84693528 9.6311301 13.25 10.9375 C12.92515625 11.66839844 12.6003125 12.39929688 12.265625 13.15234375 C11 15 11 15 9.109375 15.875 C6.46685789 16.03159361 5.29460557 15.35321563 3 14.0625 C-2.60034608 11.34179765 -7.89562194 11.62815971 -14 12 C-14.33 12.66 -14.66 13.32 -15 14 C-14.67 12.35 -14.34 10.7 -14 9 C-12.86111328 9.06960938 -12.86111328 9.06960938 -11.69921875 9.140625 C-10.70535156 9.17671875 -9.71148437 9.2128125 -8.6875 9.25 C-7.20830078 9.31960938 -7.20830078 9.31960938 -5.69921875 9.390625 C-2.90681309 9.25220815 -2.90681309 9.25220815 -1.14453125 7.234375 C0.30393729 4.82505716 0.30393729 4.82505716 0 1 C0 0.67 0 0.34 0 0 Z " fill="#23364C" transform="translate(125,330)"/>
<path d="M0 0 C1.04542969 -0.00515625 2.09085938 -0.0103125 3.16796875 -0.015625 C5.8125 0.25 5.8125 0.25 7.8125 2.25 C6.0625 8 6.0625 8 3.8125 10.25 C1.5703125 10.48046875 1.5703125 10.48046875 -1.0625 10.4375 C-1.92617187 10.43105469 -2.78984375 10.42460937 -3.6796875 10.41796875 C-5.97942226 10.26393667 -7.98033489 9.89161776 -10.1875 9.25 C-10.5175 9.91 -10.8475 10.57 -11.1875 11.25 C-12.1775 10.26 -13.1675 9.27 -14.1875 8.25 C-11.85540353 2.60387169 -11.85540353 2.60387169 -8.9609375 1.0703125 C-5.85347926 0.15120513 -3.23693978 -0.01608417 0 0 Z " fill="#061C37" transform="translate(119.1875,329.75)"/>
<path d="M0 0 C0.66 0.33 1.32 0.66 2 1 C1.34 2.32 0.68 3.64 0 5 C2.77079887 8.80984844 6.62868145 9.06840752 11 10 C10.01 10.495 10.01 10.495 9 11 C8.28272222 12.64551962 7.61674772 14.31422289 7 16 C6.67 16.66 6.34 17.32 6 18 C6.33 18.66 6.66 19.32 7 20 C6.01 20 5.02 20 4 20 C4 20.66 4 21.32 4 22 C3.34 22 2.68 22 2 22 C1.34 20.68 0.68 19.36 0 18 C-0.99 18.33 -1.98 18.66 -3 19 C-3.268125 18.030625 -3.53625 17.06125 -3.8125 16.0625 C-4.204375 15.051875 -4.59625 14.04125 -5 13 C-5.99 12.67 -6.98 12.34 -8 12 C-8 11.34 -8 10.68 -8 10 C-7.34 10 -6.68 10 -6 10 C-5.7525 9.278125 -5.505 8.55625 -5.25 7.8125 C-3.89016326 4.75286734 -2.17082246 2.5326262 0 0 Z " fill="#132B44" transform="translate(235,262)"/>
<path d="M0 0 C0.66 0.99 1.32 1.98 2 3 C4.05003955 4.19232613 4.05003955 4.19232613 6 5 C5.34 5 4.68 5 4 5 C3.67 5.66 3.34 6.32 3 7 C1.8671875 8.62109375 1.8671875 8.62109375 0 10 C-5.25411211 10.47119187 -11.53890075 10.67070776 -16.03125 7.62109375 C-19 4.03960756 -19 4.03960756 -19 2 C-12.79972999 0.12822037 -6.47729793 -1.0141224 0 0 Z M-1 4 C0 6 0 6 0 6 Z " fill="#098B4C" transform="translate(322,331)"/>
<path d="M0 0 C3.78681439 0.52594644 6.39355073 1.11428831 9 4 C9.64076144 6.7018774 9.81702306 9.20960167 10 12 C9.0409375 12.2165625 9.0409375 12.2165625 8.0625 12.4375 C6.02454854 12.81007181 6.02454854 12.81007181 5 14 C2.75 14.375 2.75 14.375 0 14 C-2.875 11.8125 -2.875 11.8125 -5 9 C-4.8125 6.1875 -4.8125 6.1875 -4 4 C-3.01 3.67 -2.02 3.34 -1 3 C-0.67 2.01 -0.34 1.02 0 0 Z " fill="#172942" transform="translate(100,374)"/>
<path d="M0 0 C3.77254453 0.50980331 5.44987123 1.20700182 8 4 C8.66 4 9.32 4 10 4 C10 5.32 10 6.64 10 8 C9.34 8 8.68 8 8 8 C8.33 8.99 8.66 9.98 9 11 C6.625 11.125 6.625 11.125 4 11 C3.34 10.34 2.68 9.68 2 9 C0.328451 9.30791692 -1.33805547 9.64386903 -3 10 C-6.31699452 9.60976535 -7.8267013 8.4992935 -10 6 C-9.34 5.67 -8.68 5.34 -8 5 C-7.67 4.01 -7.34 3.02 -7 2 C-5.02 2 -3.04 2 -1 2 C-0.67 1.34 -0.34 0.68 0 0 Z " fill="#051D35" transform="translate(120,356)"/>
<path d="M0 0 C-1.98 0.99 -1.98 0.99 -4 2 C-4 2.66 -4 3.32 -4 4 C-6.97 4 -9.94 4 -13 4 C-12.67 4.99 -12.34 5.98 -12 7 C-11.34 7 -10.68 7 -10 7 C-9.34 7.66 -8.68 8.32 -8 9 C-8 8.01 -8 7.02 -8 6 C-6.68 5.67 -5.36 5.34 -4 5 C-4.33 5.99 -4.66 6.98 -5 8 C-2.03 8.495 -2.03 8.495 1 9 C1 9.33 1 9.66 1 10 C-0.11375 10.12375 -1.2275 10.2475 -2.375 10.375 C-6.03103677 10.6465813 -6.03103677 10.6465813 -8 13 C-9.98821313 13.39764263 -11.98944339 13.73775349 -14 14 C-15.89865603 11.02819057 -17.35455571 8.48539917 -18 5 C-12.39884772 0.26056345 -7.05353749 -0.24322543 0 0 Z " fill="#223244" transform="translate(169,345)"/>
<path d="M0 0 C-0.06510417 1.98567708 -0.13020833 3.97135417 -0.1953125 5.95703125 C-0.13254462 8.31359719 -0.13254462 8.31359719 2 11 C-3.94 10.01 -3.94 10.01 -10 9 C-10 8.01 -10 7.02 -10 6 C-10.66 6 -11.32 6 -12 6 C-11.67 7.32 -11.34 8.64 -11 10 C-11.99 9.67 -12.98 9.34 -14 9 C-14 8.34 -14 7.68 -14 7 C-14.99 7.33 -15.98 7.66 -17 8 C-17 6.68 -17 5.36 -17 4 C-14.03 4 -11.06 4 -8 4 C-8.33 3.01 -8.66 2.02 -9 1 C-5.846632 0.29925156 -3.27275026 0 0 0 Z " fill="#071C36" transform="translate(173,345)"/>
<path d="M0 0 C-0.99 0.66 -1.98 1.32 -3 2 C-2.34 4.31 -1.68 6.62 -1 9 C0.32 9 1.64 9 3 9 C3 9.66 3 10.32 3 11 C-1.41225737 12.47075246 -4.48281619 13.36884358 -9 12 C-9.33 10.02 -9.66 8.04 -10 6 C-11.98 6.99 -11.98 6.99 -14 8 C-14 6.68 -14 5.36 -14 4 C-12.23494565 3.13395466 -10.46271926 2.28251358 -8.6875 1.4375 C-7.70136719 0.96183594 -6.71523438 0.48617188 -5.69921875 -0.00390625 C-3 -1 -3 -1 0 0 Z " fill="#051B35" transform="translate(290,272)"/>
<path d="M0 0 C-0.495 0.61875 -0.99 1.2375 -1.5 1.875 C-3.19222773 3.83880904 -3.19222773 3.83880904 -3 6 C-2.34 6.33 -1.68 6.66 -1 7 C0.0194119 7.98020375 1.02246356 8.97803008 2 10 C1.67 10.66 1.34 11.32 1 12 C-1.8359375 12.44921875 -1.8359375 12.44921875 -5.375 12.6875 C-6.53773438 12.77386719 -7.70046875 12.86023438 -8.8984375 12.94921875 C-12 13 -12 13 -15 12 C-14.34 12 -13.68 12 -13 12 C-13 11.34 -13 10.68 -13 10 C-12.34 10 -11.68 10 -11 10 C-10.8453125 9.1028125 -10.8453125 9.1028125 -10.6875 8.1875 C-9.90088144 5.68462276 -8.86454169 4.78685245 -7 3 C-6.67 2.01 -6.34 1.02 -6 0 C-3.42525708 -0.99667468 -2.51072708 -1.25536354 0 0 Z " fill="#051A33" transform="translate(181,378)"/>
<path d="M0 0 C1.32 0 2.64 0 4 0 C3.67 0.99 3.34 1.98 3 3 C2.84629652 5.72883073 2.74271735 8.43697142 2.68359375 11.16796875 C2.66281265 11.96278152 2.64203156 12.7575943 2.62062073 13.57649231 C2.55527913 16.11340763 2.49631192 18.65042573 2.4375 21.1875 C2.39430014 22.90821372 2.35068537 24.62891708 2.30664062 26.34960938 C2.19961352 30.56630113 2.09830276 34.7830962 2 39 C-1.63 38.67 -5.26 38.34 -9 38 C-9 37.67 -9 37.34 -9 37 C-6.03 37 -3.06 37 0 37 C-0.03552979 35.95021973 -0.07105957 34.90043945 -0.10766602 33.81884766 C-0.23783899 29.9314772 -0.36106794 26.04391251 -0.48217773 22.15625 C-0.53561424 20.4722693 -0.59094488 18.78834761 -0.64819336 17.10449219 C-0.73005852 14.68697842 -0.80515472 12.26933568 -0.87890625 9.8515625 C-0.90594131 9.0963028 -0.93297638 8.34104309 -0.96083069 7.56289673 C-1.11387171 2.22774341 -1.11387171 2.22774341 0 0 Z " fill="#25885A" transform="translate(362,352)"/>
<path d="M0 0 C1.32 0.33 2.64 0.66 4 1 C4.125 6.75 4.125 6.75 3 9 C2.34 9 1.68 9 1 9 C0.34 10.32 -0.32 11.64 -1 13 C-2.65 12.67 -4.3 12.34 -6 12 C-6 9.03 -6 6.06 -6 3 C-4.02 2.34 -2.04 1.68 0 1 C0 0.67 0 0.34 0 0 Z " fill="#098C4A" transform="translate(290,355)"/>
<path d="M0 0 C4.29 0 8.58 0 13 0 C15.79564254 2.93313316 17.32592111 4.57540027 19 8 C16 8 16 8 13.8125 6.125 C12 4 12 4 12 2 C8.37 1.67 4.74 1.34 1 1 C1 19.48 1 37.96 1 57 C0.67 57 0.34 57 0 57 C0 38.19 0 19.38 0 0 Z " fill="#1F7F4F" transform="translate(352,332)"/>
<path d="M0 0 C0.33 0 0.66 0 1 0 C1.02684312 2.81256281 1.04676188 5.62487241 1.0625 8.4375 C1.07087891 9.23994141 1.07925781 10.04238281 1.08789062 10.86914062 C1.0965143 12.91295221 1.0522815 14.95683902 1 17 C0 18 0 18 -2.28515625 18.09765625 C-3.65994141 18.08025391 -3.65994141 18.08025391 -5.0625 18.0625 C-5.98160156 18.05347656 -6.90070313 18.04445313 -7.84765625 18.03515625 C-8.55792969 18.02355469 -9.26820313 18.01195312 -10 18 C-10.33 17.34 -10.66 16.68 -11 16 C-9.35 15.67 -7.7 15.34 -6 15 C-6.99 13.68 -7.98 12.36 -9 11 C-7.1875 9.9375 -7.1875 9.9375 -5 9 C-4.01 9.33 -3.02 9.66 -2 10 C-2 10.99 -2 11.98 -2 13 C-1.34 13 -0.68 13 0 13 C-0.33 12.34 -0.66 11.68 -1 11 C-0.91255632 9.12137125 -0.75824458 7.24544819 -0.5625 5.375 C-0.46066406 4.37210937 -0.35882813 3.36921875 -0.25390625 2.3359375 C-0.17011719 1.56507813 -0.08632812 0.79421875 0 0 Z " fill="#2D3F52" transform="translate(188,374)"/>
<path d="M0 0 C3.63 0 7.26 0 11 0 C11.33 1.65 11.66 3.3 12 5 C12.66 5.33 13.32 5.66 14 6 C13.34 6 12.68 6 12 6 C12 6.66 12 7.32 12 8 C11.34 8 10.68 8 10 8 C10 6.68 10 5.36 10 4 C7.03 3.01 4.06 2.02 1 1 C1.33 15.85 1.66 30.7 2 46 C1.34 46 0.68 46 0 46 C0 30.82 0 15.64 0 0 Z " fill="#6A7782" transform="translate(251,345)"/>
<path d="M0 0 C4.29 0 8.58 0 13 0 C13 0.99 13 1.98 13 3 C13.33 4.32 13.66 5.64 14 7 C9.05 7 4.1 7 -1 7 C1 3 1 3 2 2 C1.34 2 0.68 2 0 2 C0 1.34 0 0.68 0 0 Z " fill="#041B33" transform="translate(159,364)"/>
<path d="M0 0 C7.42403155 -0.06977037 14.84799142 -0.1229476 22.27228546 -0.15543652 C25.72037914 -0.17103628 29.16824712 -0.19216893 32.61621094 -0.22631836 C36.58786235 -0.26540455 40.55942505 -0.27975629 44.53125 -0.29296875 C46.37233337 -0.31619453 46.37233337 -0.31619453 48.25061035 -0.33988953 C54.90476557 -0.34118867 59.9517374 0.16242225 66 3 C65.34 3.66 64.68 4.32 64 5 C64 4.34 64 3.68 64 3 C62.88625 3.020625 61.7725 3.04125 60.625 3.0625 C57 3 57 3 55 2 C53.30456409 1.90948931 51.60556022 1.88245128 49.90771484 1.88647461 C48.84676605 1.88655014 47.78581726 1.88662567 46.69271851 1.88670349 C45.54373077 1.89186478 44.39474304 1.89702606 43.2109375 1.90234375 C41.45059677 1.90446617 41.45059677 1.90446617 39.6546936 1.90663147 C35.89477015 1.91224311 32.13490555 1.92479762 28.375 1.9375 C25.83073002 1.9425135 23.28645912 1.94707667 20.7421875 1.95117188 C14.49477147 1.96221632 8.24738994 1.97896582 2 2 C1.67 2.66 1.34 3.32 1 4 C0.34 4 -0.32 4 -1 4 C-0.67 2.68 -0.34 1.36 0 0 Z " fill="#2B3743" transform="translate(195,147)"/>
<path d="M0 0 C0.99 0.33 1.98 0.66 3 1 C3.33 3.97 3.66 6.94 4 10 C0 11 0 11 -3 11 C-3.33 11.99 -3.66 12.98 -4 14 C-6.5625 15.1875 -6.5625 15.1875 -9 16 C-8.34 14.35 -7.68 12.7 -7 11 C-6.34 11 -5.68 11 -5 11 C-4.80664062 10.37351563 -4.61328125 9.74703125 -4.4140625 9.1015625 C-4.02347656 7.87566406 -4.02347656 7.87566406 -3.625 6.625 C-3.36976563 5.81289062 -3.11453125 5.00078125 -2.8515625 4.1640625 C-2 2 -2 2 0 0 Z " fill="#203143" transform="translate(335,170)"/>
<path d="M0 0 C3.52908775 2.88743543 4.7065366 6.45322577 5.22314453 10.93652344 C5.34023592 13.06647164 5.37950631 15.17935358 5.375 17.3125 C5.37411377 18.06289551 5.37322754 18.81329102 5.37231445 19.58642578 C5.23127795 26.19437954 4.03064726 31.80299263 -0.63671875 36.7265625 C-1.08660156 37.14679688 -1.53648437 37.56703125 -2 38 C-2 36.68 -2 35.36 -2 34 C-1.34 34 -0.68 34 0 34 C0 33.01 0 32.02 0 31 C0.66 31 1.32 31 2 31 C2 22.09 2 13.18 2 4 C1.34 4 0.68 4 0 4 C0 2.68 0 1.36 0 0 Z " fill="#499C75" transform="translate(339,344)"/>
<path d="M0 0 C6.4652248 0.96260014 10.29385826 2.41452857 15 7 C14.67 7.99 14.34 8.98 14 10 C13.01 10.33 12.02 10.66 11 11 C11 10.34 11 9.68 11 9 C10.1028125 8.566875 10.1028125 8.566875 9.1875 8.125 C7 7 7 7 4 5 C3.34 6.32 2.68 7.64 2 9 C1.34 9 0.68 9 0 9 C-1 6 -1 6 0 3.9375 C0.33 3.298125 0.66 2.65875 1 2 C0.67 1.34 0.34 0.68 0 0 Z " fill="#203348" transform="translate(125,330)"/>
<path d="M0 0 C2.31 0.66 4.62 1.32 7 2 C7.625 4.375 7.625 4.375 8 7 C5.60236815 9.39763185 4.66726502 9.34280586 1.375 9.625 C0.55773437 9.69976562 -0.25953125 9.77453125 -1.1015625 9.8515625 C-1.72804687 9.90054687 -2.35453125 9.94953125 -3 10 C-4 7 -4 7 -3 4 C-2.34 4 -1.68 4 -1 4 C-0.67 2.68 -0.34 1.36 0 0 Z " fill="#041C35" transform="translate(214,382)"/>
<path d="M0 0 C0.66 1.65 1.32 3.3 2 5 C11.9 4.505 11.9 4.505 22 4 C18.66356242 7.33643758 14.68933706 6.96664498 10.125 7.1875 C2.56441311 7.05813635 -3.40526091 4.53289594 -10 1 C-10 0.67 -10 0.34 -10 0 C-3.375 -1.125 -3.375 -1.125 0 0 Z " fill="#489570" transform="translate(303,386)"/>
<path d="M0 0 C0.66 0 1.32 0 2 0 C4 2 4 2 5 4 C5.61875 3.79375 6.2375 3.5875 6.875 3.375 C7.926875 3.189375 7.926875 3.189375 9 3 C9.66 3.66 10.32 4.32 11 5 C10.34 5 9.68 5 9 5 C9.2784375 5.928125 9.2784375 5.928125 9.5625 6.875 C10 9 10 9 9 11 C8.34 10.67 7.68 10.34 7 10 C2.8759324 8.15665974 2.8759324 8.15665974 -1.375 8.875 C-1.91125 9.24625 -2.4475 9.6175 -3 10 C-2.21302675 6.58978257 -1.12880057 3.31114834 0 0 Z " fill="#061A35" transform="translate(179,191)"/>
<path d="M0 0 C1.41681634 0.31182069 2.83344651 0.62448737 4.25 0.9375 C5.43335938 1.19853516 5.43335938 1.19853516 6.640625 1.46484375 C8.76878703 1.947556 10.88532842 2.46163178 13 3 C12.67 3.99 12.34 4.98 12 6 C5.25 5.125 5.25 5.125 3 4 C0.83801833 8.33768102 0.83801833 8.33768102 0 13 C-1.98 12.34 -3.96 11.68 -6 11 C-6 8 -6 8 -5 6 C-2.4375 5.375 -2.4375 5.375 0 5 C0 3.35 0 1.7 0 0 Z " fill="#223951" transform="translate(211,379)"/>
<path d="M0 0 C0.66 0.33 1.32 0.66 2 1 C0.8125 3.875 0.8125 3.875 -1 7 C-2.2684375 7.495 -2.2684375 7.495 -3.5625 8 C-4.366875 8.33 -5.17125 8.66 -6 9 C-7.3045656 11.99615946 -7.3045656 11.99615946 -8 15 C-9 16 -9 16 -11.5625 16.0625 C-12.366875 16.041875 -13.17125 16.02125 -14 16 C-14 15.34 -14 14.68 -14 14 C-13.34 14 -12.68 14 -12 14 C-11.979375 13.278125 -11.95875 12.55625 -11.9375 11.8125 C-10.57987768 7.73963305 -7.69931507 6.00771141 -4 4 C-3.34 4 -2.68 4 -2 4 C-2 3.34 -2 2.68 -2 2 C-1.34 2 -0.68 2 0 2 C0 1.34 0 0.68 0 0 Z " fill="#1A2B3F" transform="translate(317,231)"/>
<path d="M0 0 C0.639375 0.2475 1.27875 0.495 1.9375 0.75 C2.2675 1.74 2.5975 2.73 2.9375 3.75 C2.6075 4.41 2.2775 5.07 1.9375 5.75 C3.5875 5.75 5.2375 5.75 6.9375 5.75 C5.9475 7.235 5.9475 7.235 4.9375 8.75 C2.375 9 2.375 9 -0.0625 8.75 C-0.3925 8.42 -0.7225 8.09 -1.0625 7.75 C-1.3925 8.41 -1.7225 9.07 -2.0625 9.75 C-3.0525 9.75 -4.0425 9.75 -5.0625 9.75 C-6.06178333 7.051935 -6.09874754 5.86989571 -5.25 3.0625 C-3.81163168 0.26146696 -3.15364002 -0.3822594 0 0 Z " fill="#0D243E" transform="translate(129.0625,381.25)"/>
<path d="M0 0 C0.33 0 0.66 0 1 0 C1.2475 0.969375 1.495 1.93875 1.75 2.9375 C2.1625 3.948125 2.575 4.95875 3 6 C5.03243548 6.96877057 5.03243548 6.96877057 7 7 C7 7.66 7 8.32 7 9 C8.24546405 12.73639216 9.63404953 13.18756513 13 15 C12.34 15.66 11.68 16.32 11 17 C9.06023421 15.56547553 7.12317069 14.12753183 5.1875 12.6875 C4.64029297 12.28337891 4.09308594 11.87925781 3.52929688 11.46289062 C0.83867796 9.45715653 -1.72104205 7.4708702 -4 5 C-3.34 5 -2.68 5 -2 5 C-1.34 3.35 -0.68 1.7 0 0 Z " fill="#324053" transform="translate(290,120)"/>
<path d="M0 0 C0.99 0.33 1.98 0.66 3 1 C3.33 3.64 3.66 6.28 4 9 C2.66666667 9.33333333 1.33333333 9.66666667 0 10 C-0.721875 10.20625 -1.44375 10.4125 -2.1875 10.625 C-2.785625 10.74875 -3.38375 10.8725 -4 11 C-5 10 -5 10 -5.0625 7.4375 C-5.041875 6.633125 -5.02125 5.82875 -5 5 C-4.34 5 -3.68 5 -3 5 C-2.67 4.01 -2.34 3.02 -2 2 C-1.34 2 -0.68 2 0 2 C0 1.34 0 0.68 0 0 Z " fill="#051C37" transform="translate(106,377)"/>
<path d="M0 0 C2.01151741 0.63106429 4.01363702 1.29373761 6 2 C5.01 2.33 4.02 2.66 3 3 C3.33 3.99 3.66 4.98 4 6 C1 9 1 9 -1.5625 9.0625 C-2.366875 9.041875 -3.17125 9.02125 -4 9 C-4.66 6.69 -5.32 4.38 -6 2 C-3 0 -3 0 0 0 Z " fill="#078648" transform="translate(297,377)"/>
<path d="M0 0 C1.65322266 0.01740234 1.65322266 0.01740234 3.33984375 0.03515625 C4.99693359 0.04869141 4.99693359 0.04869141 6.6875 0.0625 C7.54214844 0.07410156 8.39679688 0.08570313 9.27734375 0.09765625 C9.27734375 0.42765625 9.27734375 0.75765625 9.27734375 1.09765625 C5.97734375 1.42765625 2.67734375 1.75765625 -0.72265625 2.09765625 C-1.38265625 12.98765625 -2.04265625 23.87765625 -2.72265625 35.09765625 C-3.05265625 35.09765625 -3.38265625 35.09765625 -3.72265625 35.09765625 C-3.74730815 30.27384823 -3.76549318 25.45007658 -3.77758789 20.6262207 C-3.78262799 18.98396161 -3.78946003 17.34170702 -3.7980957 15.69946289 C-3.81017551 13.34390146 -3.81588764 10.98839916 -3.8203125 8.6328125 C-3.82547379 7.89426529 -3.83063507 7.15571808 -3.83595276 6.39479065 C-3.83614875 4.62867537 -3.78460344 2.86268479 -3.72265625 1.09765625 C-2.72265625 0.09765625 -2.72265625 0.09765625 0 0 Z " fill="#7DB69B" transform="translate(394.72265625,329.90234375)"/>
<path d="M0 0 C0.75 2.75 0.75 2.75 1 6 C-0.9375 8.125 -0.9375 8.125 -3 10 C-3 11.32 -3 12.64 -3 14 C-3.66 14 -4.32 14 -5 14 C-5.93423645 10.98968256 -6.04449911 10.13349732 -5 7 C-5.88319294 3.84979639 -5.88319294 3.84979639 -7 1 C-4 0 -4 0 0 0 Z " fill="#041C34" transform="translate(289,171)"/>
<path d="M0 0 C1.65 0 3.3 0 5 0 C4.67 0.99 4.34 1.98 4 3 C2.35 2.67 0.7 2.34 -1 2 C-0.67 1.34 -0.34 0.68 0 0 Z M1 3 C3.33333333 5.33333333 5.66666667 7.66666667 8 10 C4.12315913 11.19287411 1.08378077 12 -3 12 C-2.67 10.35 -2.34 8.7 -2 7 C-1.34 7 -0.68 7 0 7 C0.33 5.68 0.66 4.36 1 3 Z " fill="#051C35" transform="translate(207,106)"/>
<path d="M0 0 C2 2 2 2 2.22705078 4.06298828 C2.21134033 5.30411377 2.21134033 5.30411377 2.1953125 6.5703125 C2.18564453 7.91416016 2.18564453 7.91416016 2.17578125 9.28515625 C2.15902344 10.22230469 2.14226562 11.15945313 2.125 12.125 C2.11597656 13.06988281 2.10695313 14.01476562 2.09765625 14.98828125 C2.07404522 17.32577292 2.04111516 19.66276123 2 22 C1.34 22 0.68 22 0 22 C-0.309375 22.61875 -0.61875 23.2375 -0.9375 23.875 C-1.625 25.25 -2.3125 26.625 -3 28 C-3.99 27.67 -4.98 27.34 -6 27 C-5.54625 26.5875 -5.0925 26.175 -4.625 25.75 C0.02032616 20.74734106 -0.17868309 14.51767836 0 8 C-0.20573332 5.61994782 -0.58146671 3.35424974 -1 1 C-0.67 0.67 -0.34 0.34 0 0 Z " fill="#44A174" transform="translate(330,350)"/>
<path d="M0 0 C0.66 0.33 1.32 0.66 2 1 C5.33741698 1.52256924 8.68212379 1.96147426 12.03125 2.40234375 C15 3 15 3 17 5 C16.01 5.33 15.02 5.66 14 6 C13.34 5.67 12.68 5.34 12 5 C4.50943519 4.30663968 -0.84974015 4.52708375 -7 9 C-7 6 -7 6 -5.46875 4.39453125 C-4.49421875 3.61142578 -4.49421875 3.61142578 -3.5 2.8125 C-2.8503125 2.28269531 -2.200625 1.75289063 -1.53125 1.20703125 C-1.0259375 0.80871094 -0.520625 0.41039062 0 0 Z " fill="#3A986D" transform="translate(307,338)"/>
<path d="M0 0 C0.99 0 1.98 0 3 0 C2.67 9.24 2.34 18.48 2 28 C0.02 28 -1.96 28 -4 28 C-3.67 27.34 -3.34 26.68 -3 26 C-2.01 26.33 -1.02 26.66 0 27 C0 18.09 0 9.18 0 0 Z " fill="#233240" transform="translate(261,363)"/>
<path d="M0 0 C1.32 0.33 2.64 0.66 4 1 C4.0270491 4.06255961 4.04686298 7.1248786 4.0625 10.1875 C4.07087891 11.05181641 4.07925781 11.91613281 4.08789062 12.80664062 C4.10396812 17.00286769 4.07559038 20.90936886 3 25 C2.34 24.34 1.68 23.68 1 23 C1.375 20.875 1.375 20.875 2 19 C1.34 18.67 0.68 18.34 0 18 C0.495 16.515 0.495 16.515 1 15 C1.09398229 13.18945873 1.12991987 11.37547219 1.125 9.5625 C1.12757813 8.61503906 1.13015625 7.66757812 1.1328125 6.69140625 C1.01473475 4.29859541 0.68112635 2.28663847 0 0 Z " fill="#203040" transform="translate(185,354)"/>
<path d="M0 0 C0.33 0 0.66 0 1 0 C1.03738281 1.07636719 1.07476562 2.15273438 1.11328125 3.26171875 C1.50601124 12.52652781 2.51902569 21.02792308 5 30 C0.27824052 25.86019407 -0.79309014 19.92577798 -1.22265625 13.8515625 C-1.26390807 9.07813816 -1.05398278 4.66642375 0 0 Z " fill="#4E9B75" transform="translate(283,350)"/>
<path d="M0 0 C4.05606165 0.46800711 7.46588679 0.87953208 11 3 C8.13822943 4.43088528 6.06624227 3.59991697 3 3 C3.33 3.598125 3.66 4.19625 4 4.8125 C5 7 5 7 5 10 C4.34 10 3.68 10 3 10 C3 10.66 3 11.32 3 12 C1 11 1 11 -0.1875 8.8125 C-1.1442869 5.50054536 -0.77315996 3.32458783 0 0 Z " fill="#0C2440" transform="translate(173,345)"/>
<path d="M0 0 C0.99 0.33 1.98 0.66 3 1 C3 1.66 3 2.32 3 3 C6.00259517 3.33218192 6.00259517 3.33218192 7.6875 1.5 C8.3371875 0.7575 8.3371875 0.7575 9 0 C10.32 0.66 11.64 1.32 13 2 C13 3.65 13 5.3 13 7 C9.15146198 8.28284601 7.46904797 7.47918865 3.80859375 6.03515625 C2 5 2 5 0.5 2.3125 C0.335 1.549375 0.17 0.78625 0 0 Z " fill="#031A36" transform="translate(176,269)"/>
<path d="M0 0 C0.33 0 0.66 0 1 0 C1.33 7.59 1.66 15.18 2 23 C2.99 23.33 3.98 23.66 5 24 C4.67 25.65 4.34 27.3 4 29 C-0.90437949 21.64343076 -1.7288332 12.64788627 -1 4 C-0.70137855 2.65846576 -0.3799959 1.32079219 0 0 Z " fill="#767D84" transform="translate(239,221)"/>
<path d="M0 0 C0.33 0.66 0.66 1.32 1 2 C1.598125 2.12375 2.19625 2.2475 2.8125 2.375 C5.86632335 3.24752096 7.135117 4.44441959 9 7 C8.75 10.25 8.75 10.25 8 13 C6 11 6 11 4.5625 8.5 C3.09034084 5.76297015 3.09034084 5.76297015 0 4 C-2.0492094 3.54860541 -2.0492094 3.54860541 -4.1875 3.375 C-5.445625 3.25125 -6.70375 3.1275 -8 3 C-8 2.67 -8 2.34 -8 2 C-5.36 2 -2.72 2 0 2 C0 1.34 0 0.68 0 0 Z " fill="#2F3F52" transform="translate(223,352)"/>
<path d="M0 0 C7.51869512 -0.59672183 11.74031045 0.85647028 18 5 C17.34 6.32 16.68 7.64 16 9 C14.02 8.01 12.04 7.02 10 6 C10 5.34 10 4.68 10 4 C9.01 3.67 8.02 3.34 7 3 C7 2.67 7 2.34 7 2 C4.69 1.67 2.38 1.34 0 1 C0 0.67 0 0.34 0 0 Z " fill="#374655" transform="translate(213,344)"/>
<path d="M0 0 C1.65 0 3.3 0 5 0 C7 6 7 6 6 9 C6.33 9.99 6.66 10.98 7 12 C5.68 12 4.36 12 3 12 C2.67 11.67 2.34 11.34 2 11 C2.28730055 8.66055264 2.61936779 6.3260857 3 4 C2.34 4 1.68 4 1 4 C0.67 2.68 0.34 1.36 0 0 Z " fill="#051C38" transform="translate(289,114)"/>
<path d="M0 0 C0.33 0.66 0.66 1.32 1 2 C0.67 2.99 0.34 3.98 0 5 C-3.04522337 6.01507446 -5.75139635 6.45411257 -8.9375 6.8125 C-9.97777344 6.94269531 -11.01804687 7.07289063 -12.08984375 7.20703125 C-15 7 -15 7 -17.37890625 5.01171875 C-17.91386719 4.34785156 -18.44882812 3.68398438 -19 3 C-18.34 2.67 -17.68 2.34 -17 2 C-16.34 2.33 -15.68 2.66 -15 3 C-9.32016184 3.52274617 -4.64294928 3.71435943 0 0 Z " fill="#4EA67B" transform="translate(323,377)"/>
<path d="M0 0 C0.66 0 1.32 0 2 0 C2.22424141 7.36259293 1.90120099 13.87049629 0 21 C-2.45055311 17.32417033 -2.09747109 15.94204494 -1.6875 11.625 C-1.58824219 10.50351563 -1.48898437 9.38203125 -1.38671875 8.2265625 C-1.05252418 5.43823207 -0.60064242 2.74139359 0 0 Z " fill="#314151" transform="translate(338,204)"/>
<path d="M0 0 C7.5419467 0.85545229 11.73131753 3.63082495 17 9 C16.67 9.66 16.34 10.32 16 11 C14.68 10.67 13.36 10.34 12 10 C12 9.34 12 8.68 12 8 C11.34 7.67 10.68 7.34 10 7 C9.67 6.34 9.34 5.68 9 5 C8.2575 5.061875 7.515 5.12375 6.75 5.1875 C3.52480092 4.96760006 2.30276574 4.21747812 0 2 C0 1.34 0 0.68 0 0 Z " fill="#364A59" transform="translate(123,356)"/>
<path d="M0 0 C1.134375 0.020625 2.26875 0.04125 3.4375 0.0625 C3.5625 6.8125 3.5625 6.8125 2.4375 9.0625 C0.7875 9.0625 -0.8625 9.0625 -2.5625 9.0625 C-1.5625 6.0625 -1.5625 6.0625 -0.5625 4.0625 C-1.8825 3.0725 -3.2025 2.0825 -4.5625 1.0625 C-3.5625 0.0625 -3.5625 0.0625 0 0 Z " fill="#132436" transform="translate(327.5625,160.9375)"/>
<path d="M0 0 C1.23363281 0.02707031 1.23363281 0.02707031 2.4921875 0.0546875 C4.49530804 0.1012717 6.49781821 0.17299301 8.5 0.25 C8.5 0.58 8.5 0.91 8.5 1.25 C7.83355469 1.28738281 7.16710937 1.32476562 6.48046875 1.36328125 C0.31833104 1.80281835 -5.20535559 2.83728648 -11.08984375 4.7265625 C-13.68967568 5.29119375 -14.99194767 4.97245151 -17.5 4.25 C-11.36108129 0.67365745 -7.04599369 -0.29836455 0 0 Z " fill="#4C9D79" transform="translate(313.5,329.75)"/>
<path d="M0 0 C1.875 0.9375 1.875 0.9375 3.875 3.9375 C3.215 3.9375 2.555 3.9375 1.875 3.9375 C1.545 4.9275 1.215 5.9175 0.875 6.9375 C-0.115 7.2675 -1.105 7.5975 -2.125 7.9375 C-2.785 7.6075 -3.445 7.2775 -4.125 6.9375 C-4.125 6.2775 -4.125 5.6175 -4.125 4.9375 C-4.785 4.6075 -5.445 4.2775 -6.125 3.9375 C-2.71630435 -0.0798913 -2.71630435 -0.0798913 0 0 Z " fill="#24364C" transform="translate(243.125,256.0625)"/>
<path d="M0 0 C2.78421163 2.62953321 4.87350571 4.75187658 6.625 8.1875 C10.23922044 12.46749789 14.61798199 12.4617982 20 13 C20 13.33 20 13.66 20 14 C16.19250532 14.56692476 12.79179218 14.74241398 9 14 C4.48031173 10.55057392 1.36825247 6.13710486 -1 1 C-0.67 0.67 -0.34 0.34 0 0 Z " fill="#59B188" transform="translate(384,378)"/>
<path d="M0 0 C0.66 1.32 1.32 2.64 2 4 C1.34 4 0.68 4 0 4 C0 4.99 0 5.98 0 7 C-2.31 7.66 -4.62 8.32 -7 9 C-7.33 10.32 -7.66 11.64 -8 13 C-8.66 12.67 -9.32 12.34 -10 12 C-7.76454254 6.47710509 -4.59506182 3.55015735 0 0 Z " fill="#1B2C44" transform="translate(294,216)"/>
<path d="M0 0 C2.6855594 2.6855594 3.06049974 5.37621328 4 9 C4.99 9 5.98 9 7 9 C6.34 10.32 5.68 11.64 5 13 C3.02 12.34 1.04 11.68 -1 11 C-1.14285714 3.57142857 -1.14285714 3.57142857 0 0 Z " fill="#081A32" transform="translate(149,374)"/>
<path d="M0 0 C0.99 0.33 1.98 0.66 3 1 C3.33 1.99 3.66 2.98 4 4 C4.66 4.33 5.32 4.66 6 5 C6 4.34 6 3.68 6 3 C8.64 3 11.28 3 14 3 C14 3.33 14 3.66 14 4 C11.91952703 4.5321441 9.83547707 5.05031786 7.75 5.5625 C6.58984375 5.85253906 5.4296875 6.14257812 4.234375 6.44140625 C1.27909017 6.95179964 -0.24434101 7.02996165 -3 6 C-3 5.34 -3 4.68 -3 4 C-2.01 3.34 -1.02 2.68 0 2 C0 1.34 0 0.68 0 0 Z " fill="#2B3B4E" transform="translate(258,289)"/>
<path d="M0 0 C-1 3 -1 3 -3 5 C-1.68 5 -0.36 5 1 5 C0.34 6.65 -0.32 8.3 -1 10 C-2.32 9.67 -3.64 9.34 -5 9 C-5.66 6.36 -6.32 3.72 -7 1 C-2.25 0 -2.25 0 0 0 Z " fill="#2B3F4E" transform="translate(328,165)"/>
<path d="M0 0 C0 0.66 0 1.32 0 2 C-0.66 2 -1.32 2 -2 2 C-2.2475 2.53625 -2.495 3.0725 -2.75 3.625 C-4.30084957 6.57161419 -6.08305558 9.27917566 -8 12 C-8.33 12 -8.66 12 -9 12 C-9 3 -9 3 -7.3125 1.3125 C-4.6402007 -0.20421041 -3.02346601 -0.2519555 0 0 Z " fill="#173045" transform="translate(180,138)"/>
<path d="M0 0 C0.33 0.99 0.66 1.98 1 3 C-0.11878383 4.17262904 -1.24523051 5.33795138 -2.375 6.5 C-3.00148438 7.1496875 -3.62796875 7.799375 -4.2734375 8.46875 C-6 10 -6 10 -8 10 C-8 10.66 -8 11.32 -8 12 C-8.639375 12.12375 -9.27875 12.2475 -9.9375 12.375 C-10.618125 12.58125 -11.29875 12.7875 -12 13 C-12.33 13.66 -12.66 14.32 -13 15 C-13 13.68 -13 12.36 -13 11 C-12.34 11 -11.68 11 -11 11 C-11 10.34 -11 9.68 -11 9 C-9.68 9 -8.36 9 -7 9 C-6.67 8.01 -6.34 7.02 -6 6 C-5.34 6 -4.68 6 -4 6 C-4 5.34 -4 4.68 -4 4 C-3.34 4 -2.68 4 -2 4 C-1.34 2.68 -0.68 1.36 0 0 Z " fill="#3A4554" transform="translate(320,209)"/>
<path d="M0 0 C1.32 0 2.64 0 4 0 C4 0.66 4 1.32 4 2 C5.65 1.67 7.3 1.34 9 1 C9.33 2.65 9.66 4.3 10 6 C6.6875 6.25 6.6875 6.25 3 6 C1.0625 4.125 1.0625 4.125 0 2 C0 1.34 0 0.68 0 0 Z " fill="#048B4B" transform="translate(323,380)"/>
<path d="M0 0 C1.1875 2.0625 1.1875 2.0625 2 4 C-2.24480464 4.33292585 -4.35542625 4.43885872 -7.9375 2 C-8.618125 1.34 -9.29875 0.68 -10 0 C-3.375 -1.125 -3.375 -1.125 0 0 Z " fill="#329666" transform="translate(303,386)"/>
<path d="M0 0 C1.41681634 0.31182069 2.83344651 0.62448737 4.25 0.9375 C5.43335938 1.19853516 5.43335938 1.19853516 6.640625 1.46484375 C8.76878703 1.947556 10.88532842 2.46163178 13 3 C12.67 3.99 12.34 4.98 12 6 C5.25 5.125 5.25 5.125 3 4 C2.34 4.66 1.68 5.32 1 6 C0 1.125 0 1.125 0 0 Z " fill="#3E5162" transform="translate(211,379)"/>
<path d="M0 0 C-1.98 0.99 -1.98 0.99 -4 2 C-4 2.66 -4 3.32 -4 4 C-7.3 4 -10.6 4 -14 4 C-14 3.34 -14 2.68 -14 2 C-9.07262981 0.02905192 -5.21979128 -0.1799928 0 0 Z " fill="#2B3D51" transform="translate(169,345)"/>
<path d="M0 0 C0.33 0 0.66 0 1 0 C1 1.98 1 3.96 1 6 C1.66 6 2.32 6 3 6 C4.125 11.625 4.125 11.625 3 15 C2.34 15 1.68 15 1 15 C-0.09506492 11.71480525 -0.09960608 9.26336585 -0.0625 5.8125 C-0.05347656 4.72582031 -0.04445312 3.63914062 -0.03515625 2.51953125 C-0.02355469 1.68808594 -0.01195312 0.85664063 0 0 Z " fill="#2E3F51" transform="translate(195,363)"/>
<path d="M0 0 C4.10151865 -0.47784683 7.91785238 -0.7063258 12 0 C14.74296638 2.29082906 16.38748104 4.8315417 18 8 C15 8 15 8 12.8125 6.125 C11 4 11 4 11 2 C7.37 1.67 3.74 1.34 0 1 C0 0.67 0 0.34 0 0 Z " fill="#3D9B71" transform="translate(353,332)"/>
<path d="M0 0 C0.66 0 1.32 0 2 0 C2 0.66 2 1.32 2 2 C2.66 2 3.32 2 4 2 C3.42655063 4.86724686 3.1385485 5.8614515 1 8 C-1.125 7.625 -1.125 7.625 -3 7 C-1.125 2.25 -1.125 2.25 0 0 Z " fill="#041B34" transform="translate(237,261)"/>
<path d="M0 0 C0.556875 0.226875 1.11375 0.45375 1.6875 0.6875 C1.0275 2.0075 0.3675 3.3275 -0.3125 4.6875 C-1.6325 4.6875 -2.9525 4.6875 -4.3125 4.6875 C-6.31651011 4.99580925 -8.31761766 5.32479412 -10.3125 5.6875 C-7.50687824 2.58654963 -4.3951302 -0.59393651 0 0 Z " fill="#354658" transform="translate(284.3125,254.3125)"/>
<path d="M0 0 C-0.25 1.875 -0.25 1.875 -1 4 C-3.0625 5.25 -3.0625 5.25 -5 6 C-5.99 4.35 -6.98 2.7 -8 1 C-4.93251126 -0.86240388 -3.40254489 -1.2151946 0 0 Z " fill="#091B31" transform="translate(281,242)"/>
<path d="M0 0 C0.33 0 0.66 0 1 0 C1.39704417 4.49983387 0.05526355 7.05389398 -2 11 C-2.69907414 13.73572585 -2.69907414 13.73572585 -3 16 C-3.66 16 -4.32 16 -5 16 C-4.49228528 10.03435204 -2.61407872 5.36190101 0 0 Z " fill="#4B5C68" transform="translate(152,154)"/>
<path d="M0 0 C0.598125 0.763125 1.19625 1.52625 1.8125 2.3125 C3.83046835 4.90221468 3.83046835 4.90221468 5.6875 6.625 C7 8 7 8 8 11 C5.6875 10.875 5.6875 10.875 3 10 C0.63898051 6.33634907 0 4.40218532 0 0 Z " fill="#3EA675" transform="translate(383,357)"/>
<path d="M0 0 C0.63934602 5.11476819 -1.59466453 8.67254378 -4 13 C-4.33 13 -4.66 13 -5 13 C-5.15692821 4.83973289 -5.15692821 4.83973289 -4 2 C-1 0 -1 0 0 0 Z " fill="#25354D" transform="translate(334,232)"/>
<path d="M0 0 C0.99 0.33 1.98 0.66 3 1 C3.6875 3.0625 3.6875 3.0625 4 5 C1.69 6.32 -0.62 7.64 -3 9 C-2.4140625 2.84765625 -2.4140625 2.84765625 -2 1 C-1.34 0.67 -0.68 0.34 0 0 Z " fill="#051933" transform="translate(196,150)"/>
<path d="M0 0 C2.00546689 0.29868656 4.00577205 0.63371323 6 1 C6.66 1 7.32 1 8 1 C7.67 2.32 7.34 3.64 7 5 C4.69 5 2.38 5 0 5 C-0.5625 3.0625 -0.5625 3.0625 -1 1 C-0.67 0.67 -0.34 0.34 0 0 Z " fill="#058F51" transform="translate(392,384)"/>
<path d="M0 0 C1.65 0 3.3 0 5 0 C5.309375 0.8971875 5.309375 0.8971875 5.625 1.8125 C7.50926082 4.81018767 9.81132084 5.61361776 13 7 C10 8 10 8 8.02734375 7.36328125 C7.33769531 7.01652344 6.64804688 6.66976563 5.9375 6.3125 C5.24527344 5.97863281 4.55304688 5.64476562 3.83984375 5.30078125 C1.68468113 3.77706755 0.98229523 2.41756599 0 0 Z " fill="#2F3D4E" transform="translate(100,357)"/>
<path d="M0 0 C0 3.38864211 -0.27730139 5.07890236 -2 8 C-5.625 9.3125 -5.625 9.3125 -9 10 C-8.06409496 8.8944811 -7.12620142 7.79064547 -6.1875 6.6875 C-5.66542969 6.07261719 -5.14335937 5.45773438 -4.60546875 4.82421875 C-3.12827531 3.14575321 -1.59960869 1.56117966 0 0 Z " fill="#5F6C7C" transform="translate(315,196)"/>
<path d="M0 0 C2.97 0.99 5.94 1.98 9 3 C9 3.99 9 4.98 9 6 C4.545 5.01 4.545 5.01 0 4 C0 2.68 0 1.36 0 0 Z " fill="#2E9361" transform="translate(322,331)"/>
<path d="M0 0 C2.7885289 -0.22107787 5.34653181 -0.28107535 8.125 -0.1875 C8.87910156 -0.17396484 9.63320312 -0.16042969 10.41015625 -0.14648438 C12.27374127 -0.11109985 14.13695978 -0.05729167 16 0 C16 0.33 16 0.66 16 1 C13.56421213 1.53030068 11.12694025 2.04952312 8.6875 2.5625 C7.99720703 2.71396484 7.30691406 2.86542969 6.59570312 3.02148438 C3.24455934 3.71761569 1.30465928 4.10155309 -2 3 C-1.34 2.01 -0.68 1.02 0 0 Z " fill="#53606A" transform="translate(216,113)"/>
<path d="M0 0 C3.63 1.65 7.26 3.3 11 5 C10.01 5.66 9.02 6.32 8 7 C4.56816682 6.15955106 2.51471866 5.51471866 0 3 C0 2.01 0 1.02 0 0 Z " fill="#3A4B5C" transform="translate(200,272)"/>
<path d="M0 0 C1.984375 1.14453125 1.984375 1.14453125 4 3 C4.390625 5.69921875 4.390625 5.69921875 4.25 8.6875 C4.21390625 9.68136719 4.1778125 10.67523438 4.140625 11.69921875 C4.09421875 12.45847656 4.0478125 13.21773437 4 14 C2 12 2 12 1.8046875 10.0546875 C1.86979167 8.03645833 1.93489583 6.01822917 2 4 C1.01 3.67 0.02 3.34 -1 3 C-0.67 2.01 -0.34 1.02 0 0 Z " fill="#041A30" transform="translate(335,179)"/>
<path d="M0 0 C4.92127034 -0.16682272 8.50343896 -0.24828052 13 2 C12.67 2.99 12.34 3.98 12 5 C10.56068883 4.54738642 9.12361001 4.08767021 7.6875 3.625 C6.88699219 3.36976562 6.08648437 3.11453125 5.26171875 2.8515625 C3 2 3 2 0 0 Z " fill="#384858" transform="translate(266,116)"/>
<path d="M0 0 C1.67293936 0.30027117 3.33985384 0.63557767 5 1 C5.99 0.67 6.98 0.34 8 0 C10 2 10 2 11 5 C6.71 4.01 2.42 3.02 -2 2 C-1.34 1.34 -0.68 0.68 0 0 Z " fill="#3C5267" transform="translate(115,364)"/>
<path d="M0 0 C-3.75 2 -3.75 2 -6 2 C-6.33 3.65 -6.66 5.3 -7 7 C-8.32 7 -9.64 7 -11 7 C-10.8125 4.625 -10.8125 4.625 -10 2 C-6.65842753 0.05074939 -3.81884554 -0.21821974 0 0 Z " fill="#2B3A4C" transform="translate(278,344)"/>
<path d="M0 0 C1.32 0.99 2.64 1.98 4 3 C-0.24551856 4.09587955 -3.9592839 3.92865836 -8.3125 3.5625 C-9.56675781 3.46066406 -10.82101563 3.35882813 -12.11328125 3.25390625 C-13.06589844 3.17011719 -14.01851562 3.08632813 -15 3 C-15 2.67 -15 2.34 -15 2 C-14.00097656 1.93941406 -13.00195312 1.87882812 -11.97265625 1.81640625 C-10.68230469 1.73261719 -9.39195312 1.64882813 -8.0625 1.5625 C-6.77472656 1.48128906 -5.48695313 1.40007812 -4.16015625 1.31640625 C-1.13976043 1.35080812 -1.13976043 1.35080812 0 0 Z " fill="#061B31" transform="translate(253,292)"/>
<path d="M0 0 C0 0.99 0 1.98 0 3 C-0.66 3 -1.32 3 -2 3 C-2 3.66 -2 4.32 -2 5 C-2.66 5 -3.32 5 -4 5 C-4.66 6.65 -5.32 8.3 -6 10 C-6.87491004 7.5502519 -7.12900603 6.36551707 -6.25 3.875 C-4.5949573 1.39243595 -3.07774757 0 0 0 Z " fill="#3E4D5D" transform="translate(262,208)"/>
<path d="M0 0 C0.33 0.66 0.66 1.32 1 2 C3.52733235 2.65555119 3.52733235 2.65555119 6 3 C6 3.66 6 4.32 6 5 C6.99 5.33 7.98 5.66 9 6 C9 6.66 9 7.32 9 8 C2.18181818 6.03030303 2.18181818 6.03030303 0 3 C0 2.01 0 1.02 0 0 Z " fill="#243749" transform="translate(150,384)"/>
<path d="M0 0 C0.99 0 1.98 0 3 0 C2.32322952 5.07577863 0.83136269 7.75295596 -2 12 C-2.17835515 7.45194365 -1.99785435 4.1205746 0 0 Z " fill="#5D6978" transform="translate(149,369)"/>
<path d="M0 0 C1.2065625 0.0309375 1.2065625 0.0309375 2.4375 0.0625 C2.4375 1.3825 2.4375 2.7025 2.4375 4.0625 C3.0975 4.3925 3.7575 4.7225 4.4375 5.0625 C3.7775 5.0625 3.1175 5.0625 2.4375 5.0625 C2.4375 5.7225 2.4375 6.3825 2.4375 7.0625 C1.7775 7.0625 1.1175 7.0625 0.4375 7.0625 C0.4375 5.7425 0.4375 4.4225 0.4375 3.0625 C-0.8825 2.4025 -2.2025 1.7425 -3.5625 1.0625 C-2.5625 0.0625 -2.5625 0.0625 0 0 Z " fill="#3D4C5C" transform="translate(260.5625,345.9375)"/>
<path d="M0 0 C0.66 0.33 1.32 0.66 2 1 C-0.475 5.455 -0.475 5.455 -3 10 C-3.99 10 -4.98 10 -6 10 C-4.6302836 6.00499382 -2.74277578 3.19990508 0 0 Z " fill="#374656" transform="translate(235,262)"/>
<path d="M0 0 C0.99 0 1.98 0 3 0 C3 0.66 3 1.32 3 2 C4.32 2 5.64 2 7 2 C7.33 3.32 7.66 4.64 8 6 C7.01 6.33 6.02 6.66 5 7 C3.29115995 5.37660195 1.62553283 3.70680947 0 2 C0 1.34 0 0.68 0 0 Z " fill="#041830" transform="translate(185,265)"/>
<path d="M0 0 C1.41623216 -0.05447047 2.83308191 -0.09300508 4.25 -0.125 C5.03890625 -0.14820312 5.8278125 -0.17140625 6.640625 -0.1953125 C9.20731941 0.0171622 10.7916067 0.71345895 13 2 C10.66682784 2.77772405 8.38564077 3.42415568 6 4 C5.67 3.01 5.34 2.02 5 1 C3.35 1 1.7 1 0 1 C0 0.67 0 0.34 0 0 Z " fill="#414F5E" transform="translate(251,100)"/>
<path d="M0 0 C0.33 0.66 0.66 1.32 1 2 C0.67 2.99 0.34 3.98 0 5 C-2.88211302 5.96070434 -4.69850044 6.10581883 -7.6875 6.0625 C-8.89986328 6.04896484 -8.89986328 6.04896484 -10.13671875 6.03515625 C-11.05904297 6.01775391 -11.05904297 6.01775391 -12 6 C-12 5.67 -12 5.34 -12 5 C-9.69 5 -7.38 5 -5 5 C-5 4.34 -5 3.68 -5 3 C-2.5 1.375 -2.5 1.375 0 0 Z " fill="#2E986E" transform="translate(323,377)"/>
<path d="M0 0 C2.64 0.33 5.28 0.66 8 1 C8.66 2.98 9.32 4.96 10 7 C6.42032008 5.34784004 3.22017048 3.26875648 0 1 C0 0.67 0 0.34 0 0 Z " fill="#354452" transform="translate(178,274)"/>
<path d="M0 0 C0 0.66 0 1.32 0 2 C-1.32 2 -2.64 2 -4 2 C-4 2.66 -4 3.32 -4 4 C-5.32 4.33 -6.64 4.66 -8 5 C-8 3.68 -8 2.36 -8 1 C-5.29120665 -0.35439668 -2.99066732 -0.06501451 0 0 Z " fill="#22344E" transform="translate(295,250)"/>
<path d="M0 0 C6.20970773 -0.33266291 10.28264895 0.54970669 16 3 C15.34 3.66 14.68 4.32 14 5 C14 4.34 14 3.68 14 3 C12.4840625 3.061875 12.4840625 3.061875 10.9375 3.125 C6.81923948 2.99426157 3.88169467 2.26749214 0 1 C0 0.67 0 0.34 0 0 Z " fill="#46525E" transform="translate(245,147)"/>
<path d="M0 0 C2.64 0 5.28 0 8 0 C5.75 2.0625 5.75 2.0625 3 4 C0.6875 3.75 0.6875 3.75 -1 3 C-0.67 2.01 -0.34 1.02 0 0 Z " fill="#44A375" transform="translate(325,386)"/>
<path d="M0 0 C0.66 0 1.32 0 2 0 C2.80967438 2.91482778 3.21845993 4.46113217 2.0625 7.3125 C1.5365625 8.1478125 1.5365625 8.1478125 1 9 C0.34 8.67 -0.32 8.34 -1 8 C-0.67 5.36 -0.34 2.72 0 0 Z " fill="#2A3545" transform="translate(139,370)"/>
<path d="M0 0 C1.32 0.33 2.64 0.66 4 1 C3.525625 1.86625 3.05125 2.7325 2.5625 3.625 C1.06765105 6.85387374 0.41781687 9.49033826 0 13 C-0.33 13 -0.66 13 -1 13 C-2.20577428 8.05632546 -1.6290678 4.79137588 0 0 Z " fill="#475662" transform="translate(207,358)"/>
<path d="M0 0 C0.66 0 1.32 0 2 0 C2 0.66 2 1.32 2 2 C3.32 2.66 4.64 3.32 6 4 C5.34 5.32 4.68 6.64 4 8 C1.44971017 6.72485508 1.06918289 5.59658703 0 3 C0 2.01 0 1.02 0 0 Z " fill="#2A3952" transform="translate(151,238)"/>
<path d="M0 0 C0.33 0 0.66 0 1 0 C1.08090971 1.62418745 1.13914995 3.24951745 1.1875 4.875 C1.22230469 5.77992188 1.25710938 6.68484375 1.29296875 7.6171875 C1.19628906 8.40351563 1.09960938 9.18984375 1 10 C0.01 10.66 -0.98 11.32 -2 12 C-2 2 -2 2 0 0 Z " fill="#0C1A2D" transform="translate(298,189)"/>
<path d="M0 0 C0.99 0 1.98 0 3 0 C2.34 3.63 1.68 7.26 1 11 C-1.26609984 6.46780033 -0.92735976 4.82227075 0 0 Z " fill="#40505A" transform="translate(157,172)"/>
<path d="M0 0 C1 3 1 3 -0.3125 5.6875 C-0.869375 6.450625 -1.42625 7.21375 -2 8 C-2.66 8 -3.32 8 -4 8 C-4.33 8.66 -4.66 9.32 -5 10 C-5 6 -5 6 -3 3 C-2.34 3 -1.68 3 -1 3 C-0.67 2.01 -0.34 1.02 0 0 Z " fill="#264151" transform="translate(165,134)"/>
<path d="M0 0 C3.71888239 0.50712033 6.73454239 1.11608215 10 3 C8.68 3.99 7.36 4.98 6 6 C4.5 4.625 4.5 4.625 3 3 C3 2.34 3 1.68 3 1 C2.01 0.67 1.02 0.34 0 0 Z " fill="#3D4C5C" transform="translate(276,106)"/>
<path d="M0 0 C1.57554035 2.88628401 2.46276373 5.53342384 3.125 8.75 C3.29257812 9.54921875 3.46015625 10.3484375 3.6328125 11.171875 C3.81457031 12.07679688 3.81457031 12.07679688 4 13 C1.36156162 10.49203385 0.01499155 8.55247044 -1 5 C-0.625 2.1875 -0.625 2.1875 0 0 Z " fill="#66B491" transform="translate(284,367)"/>
<path d="M0 0 C1.65 1.65 3.3 3.3 5 5 C4.67 5.99 4.34 6.98 4 8 C2.35 8 0.7 8 -1 8 C-0.4740625 7.13375 -0.4740625 7.13375 0.0625 6.25 C1.14917407 3.64198224 0.93065133 2.60582371 0 0 Z " fill="#2F976B" transform="translate(333,336)"/>
<path d="M0 0 C0.66 0.33 1.32 0.66 2 1 C-2.18461538 5.92307692 -2.18461538 5.92307692 -6.3125 6.3125 C-7.199375 6.209375 -8.08625 6.10625 -9 6 C-6.12050853 3.76039553 -3.23257974 1.70135776 0 0 Z " fill="#3E4C61" transform="translate(270,261)"/>
<path d="M0 0 C1.32 0.33 2.64 0.66 4 1 C3.34 1.66 2.68 2.32 2 3 C2.33 3.66 2.66 4.32 3 5 C0.525 6.485 0.525 6.485 -2 8 C-1.125 2.25 -1.125 2.25 0 0 Z " fill="#081C2F" transform="translate(320,227)"/>
<path d="M0 0 C0.66 0.33 1.32 0.66 2 1 C1.34 2.98 0.68 4.96 0 7 C-1.32 6.67 -2.64 6.34 -4 6 C-4 5.01 -4 4.02 -4 3 C-2 1.3125 -2 1.3125 0 0 Z " fill="#041A32" transform="translate(157,150)"/>
<path d="M0 0 C0.33 0 0.66 0 1 0 C1 2.64 1 5.28 1 8 C-1.475 7.01 -1.475 7.01 -4 6 C-3.34 5.67 -2.68 5.34 -2 5 C-1.27840576 3.35636866 -0.60648579 1.68949614 0 0 Z " fill="#35475D" transform="translate(290,120)"/>
<path d="M0 0 C2.0625 0.4375 2.0625 0.4375 4 1 C3.67 1.99 3.34 2.98 3 4 C0.4375 5.1875 0.4375 5.1875 -2 6 C-1.125 1.125 -1.125 1.125 0 0 Z " fill="#011234" transform="translate(97,377)"/>
<path d="M0 0 C1.32 0 2.64 0 4 0 C4 2.31 4 4.62 4 7 C3.01 7 2.02 7 1 7 C0.67 4.69 0.34 2.38 0 0 Z " fill="#05162C" transform="translate(195,362)"/>
<path d="M0 0 C0.66 0.33 1.32 0.66 2 1 C1.67 3.31 1.34 5.62 1 8 C0.67 7.34 0.34 6.68 0 6 C-1.64363134 5.27840576 -3.31050386 4.60648579 -5 4 C-4.0409375 3.8453125 -4.0409375 3.8453125 -3.0625 3.6875 C-2.381875 3.460625 -1.70125 3.23375 -1 3 C-0.67 2.01 -0.34 1.02 0 0 Z " fill="#3D4C5B" transform="translate(283,177)"/>
<path d="M0 0 C2.97 0 5.94 0 9 0 C8.67 0.99 8.34 1.98 8 3 C7.34 3 6.68 3 6 3 C5.67 3.66 5.34 4.32 5 5 C3.35 3.35 1.7 1.7 0 0 Z " fill="#2C3C4E" transform="translate(235,170)"/>
<path d="M0 0 C2.31 0 4.62 0 7 0 C7 0.66 7 1.32 7 2 C6.34 2 5.68 2 5 2 C5 2.66 5 3.32 5 4 C3.02 3.34 1.04 2.68 -1 2 C-0.67 1.34 -0.34 0.68 0 0 Z " fill="#051B35" transform="translate(324,161)"/>
<path d="M0 0 C0.33 0.66 0.66 1.32 1 2 C1.639375 2.309375 2.27875 2.61875 2.9375 2.9375 C5 4 5 4 7 7 C6.01 7.495 6.01 7.495 5 8 C4.67 7.34 4.34 6.68 4 6 C3.175 5.505 2.35 5.01 1.5 4.5 C-1 3 -1 3 -2 1 C-1.34 0.67 -0.68 0.34 0 0 Z " fill="#293B4D" transform="translate(307,123)"/>
<path d="M0 0 C0.66 0.99 1.32 1.98 2 3 C1.01 3 0.02 3 -1 3 C-1.33 3.66 -1.66 4.32 -2 5 C-3.97888961 5.72693904 -5.97954558 6.39816251 -8 7 C-7.67 6.34 -7.34 5.68 -7 5 C-6.34 5 -5.68 5 -5 5 C-5 4.34 -5 3.68 -5 3 C-2.5 1.375 -2.5 1.375 0 0 Z " fill="#2B405D" transform="translate(185,116)"/>
<path d="M0 0 C0.99 0.33 1.98 0.66 3 1 C2.67 1.99 2.34 2.98 2 4 C1.34 4 0.68 4 0 4 C-0.33 5.98 -0.66 7.96 -1 10 C-1.33 10 -1.66 10 -2 10 C-1.125 2.25 -1.125 2.25 0 0 Z " fill="#5AA27E" transform="translate(297,347)"/>
<path d="M0 0 C4.05606165 0.46800711 7.46588679 0.87953208 11 3 C8.47946405 4.26026798 7.1457902 3.91874445 4.375 3.5625 C3.14910156 3.40974609 3.14910156 3.40974609 1.8984375 3.25390625 C1.27195313 3.17011719 0.64546875 3.08632813 0 3 C0 2.01 0 1.02 0 0 Z " fill="#434E60" transform="translate(173,345)"/>
<path d="M0 0 C3.96 0.33 7.92 0.66 12 1 C12 1.33 12 1.66 12 2 C11.14535156 2.04898437 10.29070312 2.09796875 9.41015625 2.1484375 C8.30542969 2.22320312 7.20070313 2.29796875 6.0625 2.375 C4.96035156 2.44460938 3.85820313 2.51421875 2.72265625 2.5859375 C1.82417969 2.72257812 0.92570312 2.85921875 0 3 C-0.33 3.66 -0.66 4.32 -1 5 C-0.67 3.35 -0.34 1.7 0 0 Z " fill="#616977" transform="translate(111,339)"/>
<path d="M0 0 C0.66 0 1.32 0 2 0 C2 1.98 2 3.96 2 6 C2.99 6.33 3.98 6.66 5 7 C4.67 8.65 4.34 10.3 4 12 C2.09681116 9.14521674 1.5380901 7.58058692 0.875 4.3125 C0.70742187 3.50425781 0.53984375 2.69601563 0.3671875 1.86328125 C0.24601563 1.24839844 0.12484375 0.63351563 0 0 Z " fill="#4C5B6D" transform="translate(239,238)"/>
<path d="M0 0 C0.66 0.33 1.32 0.66 2 1 C0.9024777 3.99324263 0.32317108 4.84610901 -2.625 6.25 C-3.40875 6.4975 -4.1925 6.745 -5 7 C-5.33 6.34 -5.66 5.68 -6 5 C-4.6875 3.5 -4.6875 3.5 -3 2 C-2.01 2 -1.02 2 0 2 C0 1.34 0 0.68 0 0 Z " fill="#04182E" transform="translate(281,228)"/>
<path d="M0 0 C0.33 0 0.66 0 1 0 C1.33 3.3 1.66 6.6 2 10 C1.34 10 0.68 10 0 10 C0 9.34 0 8.68 0 8 C-0.66 7.67 -1.32 7.34 -2 7 C-1.34 4.69 -0.68 2.38 0 0 Z " fill="#3C475B" transform="translate(156,205)"/>
<path d="M0 0 C1 3 1 3 0 6 C-3.62326739 7.2077558 -4.64146369 6.54311128 -8 5 C-4.25 3.875 -4.25 3.875 -2 5 C-1.855625 4.360625 -1.71125 3.72125 -1.5625 3.0625 C-1 1 -1 1 0 0 Z " fill="#506576" transform="translate(298,199)"/>
<path d="M0 0 C0.66 0 1.32 0 2 0 C2 2.31 2 4.62 2 7 C1.01 7.33 0.02 7.66 -1 8 C-1.125 2.25 -1.125 2.25 0 0 Z " fill="#091C2F" transform="translate(194,177)"/>
<path d="M0 0 C1.875 0.25 1.875 0.25 4 1 C6.11103658 3.95545121 6.19785783 6.43855901 6 10 C3.47650757 6.87567603 1.72743854 3.61939504 0 0 Z " fill="#3E4D5C" transform="translate(312,149)"/>
<path d="M0 0 C2.475 0.99 2.475 0.99 5 2 C4.34 3.32 3.68 4.64 3 6 C1.68 4.68 0.36 3.36 -1 2 C-0.67 1.34 -0.34 0.68 0 0 Z " fill="#214357" transform="translate(226,347)"/>
<path d="M0 0 C2.64 0 5.28 0 8 0 C8.33 0.66 8.66 1.32 9 2 C2.25 3.125 2.25 3.125 0 2 C0 1.34 0 0.68 0 0 Z " fill="#091A2C" transform="translate(212,345)"/>
<path d="M0 0 C1.95803507 -0.05389087 3.91648909 -0.09274217 5.875 -0.125 C7.51082031 -0.15980469 7.51082031 -0.15980469 9.1796875 -0.1953125 C12 0 12 0 14 2 C13.01 2.33 12.02 2.66 11 3 C10.34 2.67 9.68 2.34 9 2 C7.46331135 1.77532169 5.92031946 1.59203195 4.375 1.4375 C3.55773437 1.35371094 2.74046875 1.26992188 1.8984375 1.18359375 C1.27195312 1.12300781 0.64546875 1.06242187 0 1 C0 0.67 0 0.34 0 0 Z " fill="#7DC7A4" transform="translate(310,341)"/>
<path d="M0 0 C0.33 0.99 0.66 1.98 1 3 C3.00016466 4.20882096 3.00016466 4.20882096 5 5 C5 5.99 5 6.98 5 8 C1.125 6.125 1.125 6.125 0 5 C-0.04063832 3.33382885 -0.042721 1.66611905 0 0 Z " fill="#324251" transform="translate(163,255)"/>
<path d="M0 0 C0.66 1.32 1.32 2.64 2 4 C0.02 4.99 0.02 4.99 -2 6 C-2.66 5.34 -3.32 4.68 -4 4 C-2.68 2.68 -1.36 1.36 0 0 Z " fill="#021A37" transform="translate(161,153)"/>
<path d="M0 0 C0.33 0.66 0.66 1.32 1 2 C1.99 2.33 2.98 2.66 4 3 C3.67 3.99 3.34 4.98 3 6 C2.34 6 1.68 6 1 6 C0.34 4.35 -0.32 2.7 -1 1 C-0.67 0.67 -0.34 0.34 0 0 Z M4 0 C4.66 0 5.32 0 6 0 C5.67 0.99 5.34 1.98 5 3 C4.67 2.01 4.34 1.02 4 0 Z " fill="#071B35" transform="translate(307,138)"/>
<path d="M0 0 C1.65 0 3.3 0 5 0 C5 0.66 5 1.32 5 2 C4.34 2 3.68 2 3 2 C2.34 3.32 1.68 4.64 1 6 C-0.0625 4.125 -0.0625 4.125 -1 2 C-0.67 1.34 -0.34 0.68 0 0 Z " fill="#2A394B" transform="translate(175,138)"/>
<path d="M0 0 C0.99 0.33 1.98 0.66 3 1 C0.69 2.65 -1.62 4.3 -4 6 C-4.33 5.01 -4.66 4.02 -5 3 C-2.6875 1.4375 -2.6875 1.4375 0 0 Z " fill="#364C5A" transform="translate(189,128)"/>
<path d="M0 0 C3.3 0 6.6 0 10 0 C5.577168 3.317124 4.28089024 3.30466674 -1 3 C-0.67 2.01 -0.34 1.02 0 0 Z " fill="#2E3966" transform="translate(164,390)"/>
<path d="M0 0 C0.99 0.33 1.98 0.66 3 1 C2.67 2.32 2.34 3.64 2 5 C0.35 5 -1.3 5 -3 5 C-2.01 3.35 -1.02 1.7 0 0 Z " fill="#051835" transform="translate(245,267)"/>
<path d="M0 0 C2 2 2 2 2.125 5.125 C2.08375 6.07375 2.0425 7.0225 2 8 C1.01 8 0.02 8 -1 8 C-0.67 5.36 -0.34 2.72 0 0 Z " fill="#06172B" transform="translate(250,226)"/>
<path d="M0 0 C0.625 1.8125 0.625 1.8125 1 4 C0.01 5.485 0.01 5.485 -1 7 C-2.32 6.34 -3.64 5.68 -5 5 C-3.35 3.35 -1.7 1.7 0 0 Z " fill="#485969" transform="translate(229,375)"/>
<path d="M0 0 C0.33 2.64 0.66 5.28 1 8 C0.566875 7.54625 0.13375 7.0925 -0.3125 6.625 C-2.10798342 4.79975666 -2.10798342 4.79975666 -5 3 C-1.125 0 -1.125 0 0 0 Z " fill="#05172D" transform="translate(206,366)"/>
<path d="M0 0 C2 2 2 2 2.125 5.625 C2.08375 6.73875 2.0425 7.8525 2 9 C1.34 8.67 0.68 8.34 0 8 C-0.6875 4.5 -0.6875 4.5 -1 1 C-0.67 0.67 -0.34 0.34 0 0 Z " fill="#53A67B" transform="translate(330,350)"/>
<path d="M0 0 C0.66 0 1.32 0 2 0 C1.34 1.65 0.68 3.3 0 5 C-0.66 5 -1.32 5 -2 5 C-2 5.99 -2 6.98 -2 8 C-2.66 7.67 -3.32 7.34 -4 7 C-2.68 4.69 -1.36 2.38 0 0 Z " fill="#62AB85" transform="translate(288,341)"/>
<path d="M0 0 C1.32 0 2.64 0 4 0 C4 0.99 4 1.98 4 3 C4.99 3.33 5.98 3.66 7 4 C6.01 5.485 6.01 5.485 5 7 C3.35 4.69 1.7 2.38 0 0 Z " fill="#62B190" transform="translate(323,344)"/>
<path d="M0 0 C1.485 0.99 1.485 0.99 3 2 C3.99 2 4.98 2 6 2 C5.67 2.66 5.34 3.32 5 4 C3.68 4 2.36 4 1 4 C0.67 4.66 0.34 5.32 0 6 C-1.125 2.25 -1.125 2.25 0 0 Z " fill="#05182B" transform="translate(314,257)"/>
<path d="M0 0 C1.68762851 1.6454378 3.3540349 3.31288577 5 5 C5 5.33 5 5.66 5 6 C3.35 6 1.7 6 0 6 C0.33 5.01 0.66 4.02 1 3 C0.01 2.67 -0.98 2.34 -2 2 C-1.34 1.34 -0.68 0.68 0 0 Z " fill="#405B6E" transform="translate(171,246)"/>
<path d="M0 0 C0.33 0 0.66 0 1 0 C1 2.31 1 4.62 1 7 C0.01 6.67 -0.98 6.34 -2 6 C-1.125 1.125 -1.125 1.125 0 0 Z " fill="#051932" transform="translate(334,224)"/>
<path d="M0 0 C3 0 3 0 6 1 C6 1.66 6 2.32 6 3 C4.35 3 2.7 3 1 3 C1 3.66 1 4.32 1 5 C0.34 4.67 -0.32 4.34 -1 4 C-0.67 2.68 -0.34 1.36 0 0 Z " fill="#041830" transform="translate(298,224)"/>
<path d="M0 0 C1.32 0.33 2.64 0.66 4 1 C2.625 2.5 2.625 2.5 1 4 C0.34 4 -0.32 4 -1 4 C-1.33 4.66 -1.66 5.32 -2 6 C-2 4.68 -2 3.36 -2 2 C-1.34 2 -0.68 2 0 2 C0 1.34 0 0.68 0 0 Z " fill="#203D50" transform="translate(309,218)"/>
<path d="M0 0 C0.33 0 0.66 0 1 0 C1.125 6.75 1.125 6.75 0 9 C-0.66 9 -1.32 9 -2 9 C-1.51421457 5.87709365 -1.0013988 3.00419641 0 0 Z " fill="#4B5B6C" transform="translate(242,212)"/>
<path d="M0 0 C0.66 0.99 1.32 1.98 2 3 C1.125 5.6875 1.125 5.6875 0 8 C-0.66 8 -1.32 8 -2 8 C-1.47731534 5.23723823 -0.89130413 2.6739124 0 0 Z " fill="#505E6D" transform="translate(172,205)"/>
<path d="M0 0 C0.33 0.99 0.66 1.98 1 3 C1.66 3.33 2.32 3.66 3 4 C2.34 4 1.68 4 1 4 C1 4.66 1 5.32 1 6 C0.01 6.33 -0.98 6.66 -2 7 C-2 5.35 -2 3.7 -2 2 C-1.34 2 -0.68 2 0 2 C0 1.34 0 0.68 0 0 Z " fill="#061527" transform="translate(250,201)"/>
<path d="M0 0 C0 3 0 3 0 3 Z M-2 3 C-1.34 3.66 -0.68 4.32 0 5 C-1.32 6.65 -2.64 8.3 -4 10 C-4 8.35 -4 6.7 -4 5 C-3.34 5 -2.68 5 -2 5 C-2 4.34 -2 3.68 -2 3 Z " fill="#091B31" transform="translate(189,169)"/>
<path d="M0 0 C0.66 1.32 1.32 2.64 2 4 C0.625 5.5 0.625 5.5 -1 7 C-1.66 7 -2.32 7 -3 7 C-1.125 2.25 -1.125 2.25 0 0 Z " fill="#4E5973" transform="translate(156,146)"/>
</svg>
